<?xml version="1.0" encoding="UTF-8" standalone="no"?>
<!-- Created with Inkscape (http://www.inkscape.org/) -->

<svg
   xmlns:dc="http://purl.org/dc/elements/1.1/"
   xmlns:cc="http://creativecommons.org/ns#"
   xmlns:rdf="http://www.w3.org/1999/02/22-rdf-syntax-ns#"
   xmlns:svg="http://www.w3.org/2000/svg"
   xmlns="http://www.w3.org/2000/svg"
   xmlns:sodipodi="http://sodipodi.sourceforge.net/DTD/sodipodi-0.dtd"
   xmlns:inkscape="http://www.inkscape.org/namespaces/inkscape"
   width="744.09448"
   height="1052.3622"
   id="svg3649"
   version="1.1"
   inkscape:version="0.48.4 r9939"
   sodipodi:docname="2-0.svg">
  <defs
     id="defs3651" />
  <sodipodi:namedview
     id="base"
     pagecolor="#ffffff"
     bordercolor="#666666"
     borderopacity="1.0"
     inkscape:pageopacity="0.0"
     inkscape:pageshadow="2"
     inkscape:zoom="0.61626974"
     inkscape:cx="312.42559"
     inkscape:cy="856.34219"
     inkscape:document-units="px"
     inkscape:current-layer="layer2"
     showgrid="false"
     inkscape:window-width="1220"
     inkscape:window-height="856"
     inkscape:window-x="630"
     inkscape:window-y="24"
     inkscape:window-maximized="0"
     fit-margin-top="0"
     fit-margin-left="0"
     fit-margin-right="0"
     fit-margin-bottom="0"
     units="mm" />
  <metadata
     id="metadata3654">
    <rdf:RDF>
      <cc:Work
         rdf:about="">
        <dc:format>image/svg+xml</dc:format>
        <dc:type
           rdf:resource="http://purl.org/dc/dcmitype/StillImage" />
        <dc:title></dc:title>
      </cc:Work>
    </rdf:RDF>
  </metadata>
  <g
     inkscape:groupmode="layer"
     id="layer2"
     inkscape:label="Layer">
    <path
       inkscape:connector-curvature="0"
       id="path3148"
       style="font-size:200px;font-style:normal;font-variant:normal;font-weight:normal;font-stretch:normal;line-height:125%;letter-spacing:0px;word-spacing:0px;fill:none;stroke:#000000;stroke-width:1.60713601;stroke-opacity:1;font-family:TakaoPMincho;-inkscape-font-specification:TakaoPMincho"
       d="m 175.59244,400.95425 -7.6904,65.9177 -141.095242,0 0,-12.86964 c 7.11489,-30.55228 28.87817,-60.68605 65.28989,-90.4014 l 5.17926,-4.23757 c 17.473312,-13.39268 29.087362,-24.06506 34.842212,-32.01717 8.1611,-11.09075 12.24171,-22.86177 12.24186,-35.31304 -1.5e-4,-17.15934 -5.5456,-30.02897 -16.63638,-38.60894 -8.16136,-6.17302 -17.94437,-9.25964 -29.349072,-9.25986 -18.20591,2.2e-4 -31.44175,5.85957 -39.70756,17.57805 -4.39457,6.27808 -6.74877,12.81752 -7.06261,19.61835 10.2538,0.31409 15.38073,5.33639 15.38081,15.0669 -8e-5,10.4633 -5.12701,15.69485 -15.38081,15.6947 -12.66042,1.5e-4 -18.99059,-7.16709 -18.99056,-21.50173 -3e-5,-14.54355 6.01625,-27.77939 18.04889,-39.70756 12.34642,-12.45088 28.61657,-18.67644 48.81048,-18.67669 18.938132,2.5e-4 34.789752,4.91792 47.554902,14.75302 14.96211,11.50965 22.44323,27.04737 22.44341,46.61322 -1.8e-4,13.4976 -3.97617,25.79176 -11.92797,36.88252 -7.32433,10.56789 -21.76344,22.80973 -43.31733,36.72557 l -8.94598,5.80703 c -34.842282,22.28653 -55.297662,47.0318 -61.366232,74.23588 l 85.065202,0 c 13.28803,2e-5 21.97241,-2.98197 26.05319,-8.94597 3.8712,-5.1269 7.63791,-17.57801 11.30017,-37.35337 l 9.25987,0" />
  </g>
</svg>
