<?xml version="1.0" encoding="UTF-8" standalone="no"?>
<!-- Created with Inkscape (http://www.inkscape.org/) -->

<svg
   xmlns:dc="http://purl.org/dc/elements/1.1/"
   xmlns:cc="http://creativecommons.org/ns#"
   xmlns:rdf="http://www.w3.org/1999/02/22-rdf-syntax-ns#"
   xmlns:svg="http://www.w3.org/2000/svg"
   xmlns="http://www.w3.org/2000/svg"
   xmlns:sodipodi="http://sodipodi.sourceforge.net/DTD/sodipodi-0.dtd"
   xmlns:inkscape="http://www.inkscape.org/namespaces/inkscape"
   width="744.09448"
   height="1052.3622"
   id="svg3649"
   version="1.1"
   inkscape:version="0.48.4 r9939"
   sodipodi:docname="2014-2.svg">
  <defs
     id="defs3651" />
  <sodipodi:namedview
     id="base"
     pagecolor="#ffffff"
     bordercolor="#666666"
     borderopacity="1.0"
     inkscape:pageopacity="0.0"
     inkscape:pageshadow="2"
     inkscape:zoom="0.61626974"
     inkscape:cx="284.02893"
     inkscape:cy="856.34219"
     inkscape:document-units="px"
     inkscape:current-layer="layer2"
     showgrid="false"
     inkscape:window-width="1220"
     inkscape:window-height="856"
     inkscape:window-x="630"
     inkscape:window-y="24"
     inkscape:window-maximized="0"
     fit-margin-top="0"
     fit-margin-left="0"
     fit-margin-right="0"
     fit-margin-bottom="0"
     units="mm" />
  <metadata
     id="metadata3654">
    <rdf:RDF>
      <cc:Work
         rdf:about="">
        <dc:format>image/svg+xml</dc:format>
        <dc:type
           rdf:resource="http://purl.org/dc/dcmitype/StillImage" />
        <dc:title></dc:title>
      </cc:Work>
    </rdf:RDF>
  </metadata>
  <g
     inkscape:groupmode="layer"
     id="layer2"
     inkscape:label="Layer">
    <path
       inkscape:connector-curvature="0"
       id="path3148"
       style="font-size:200px;font-style:normal;font-variant:normal;font-weight:normal;font-stretch:normal;line-height:125%;letter-spacing:0px;word-spacing:0px;fill:none;stroke:#000000;stroke-width:3.21427202;stroke-opacity:1;font-family:TakaoPMincho;-inkscape-font-specification:TakaoPMincho"
       d="m 0.09468449,452.35435 -15.38080049,131.8354 -282.190484,0 0,-25.73928 c 14.22978,-61.10456 57.75634,-121.3721 130.57978,-180.8028 l 10.35852,-8.47514 c 34.94662,-26.78536 58.174724,-48.13012 69.684424,-64.03434 16.3222,-22.1815 24.48342,-45.72354 24.48372,-70.62608 -3e-4,-34.31868 -11.0912,-60.05794 -33.27276,-77.21788 -16.322724,-12.34604 -35.888744,-18.51928 -58.698144,-18.51972 -36.41182,4.4e-4 -62.8835,11.71914 -79.41512,35.1561 -8.78914,12.55616 -13.49754,25.63504 -14.12522,39.2367 20.5076,0.62818 30.76146,10.67278 30.76162,30.1338 -1.6e-4,20.9266 -10.25402,31.3897 -30.76162,31.3894 -25.32084,3e-4 -37.98118,-14.33418 -37.98112,-43.00346 -6e-5,-29.0871 12.0325,-55.55878 36.09778,-79.41512 24.69284,-24.90176 57.23314,-37.35288 97.62096,-37.35338 37.87626,5e-4 69.579504,9.83584 95.109804,29.50604 29.92422,23.0193 44.88646,54.09474 44.88682,93.22644 -3.6e-4,26.9952 -7.95234,51.58352 -23.85594,73.76504 -14.64866,21.13578 -43.52688,45.61946 -86.634664,73.45114 l -17.89196,11.61406 c -69.68456,44.57306 -110.59532,94.0636 -122.73246,148.47176 l 170.130404,0 c 26.57606,4e-5 43.94482,-5.96394 52.10638,-17.89194 7.7424,-10.2538 15.27582,-35.15602 22.60034,-74.70674 l 18.51974049,0" />
    <path
       inkscape:connector-curvature="0"
       id="path3150"
       style="font-size:200px;font-style:normal;font-variant:normal;font-weight:normal;font-stretch:normal;line-height:125%;letter-spacing:0px;word-spacing:0px;fill:none;stroke:#000000;stroke-width:3.08906221;stroke-opacity:1;font-family:TakaoPMincho;-inkscape-font-specification:TakaoPMincho"
       d="m 183.02312,116.55976 c 51.283,4.6e-4 90.19794,23.93262 116.74484,71.79656 23.93186,41.6303 35.89792,95.52792 35.89826,161.69312 -3.4e-4,66.16562 -12.36862,120.56605 -37.10494,163.20144 -26.5469,46.45662 -64.45624,69.68488 -113.72816,69.6849 -49.4734,-2e-5 -87.48332,-23.22828 -114.02986,-69.6849 C 46.46882,470.21326 34.30164,415.61172 34.30168,349.44612 34.30164,257.941 55.5188,191.87616 97.95326,151.25138 c 24.33426,-23.1273 52.69086,-34.69116 85.06986,-34.69162 m 2.41334,21.71996 c -29.56348,4.6e-4 -53.39506,15.8882 -71.4949,47.66328 -21.72006,39.21696 -32.58002,93.81848 -32.57996,163.8048 -6e-5,58.5234 7.84324,106.28718 23.52996,143.29142 18.9043,44.84779 45.75256,67.27161 80.5449,67.27161 35.7975,0 62.94742,-23.32882 81.44988,-69.98657 14.47968,-36.19984 21.71966,-82.8575 21.71998,-139.97314 C 288.606,289.6159 280.76268,240.74604 265.07634,203.7413 246.775,160.10068 220.2284,138.28018 185.43646,138.27972" />
    <path
       inkscape:connector-curvature="0"
       id="path3152"
       style="font-size:200px;font-style:normal;font-variant:normal;font-weight:normal;font-stretch:normal;line-height:125%;letter-spacing:0px;word-spacing:0px;fill:none;stroke:#000000;stroke-width:3.11926913;stroke-opacity:1;font-family:TakaoPMincho;-inkscape-font-specification:TakaoPMincho"
       d="m 639.2602,580.44178 -212.6221,0 0,-19.49542 c 34.31998,2e-5 55.94772,-2.03074 64.88326,-6.09234 14.21524,-6.09228 21.32296,-19.39384 21.3231,-39.90472 l 0,-301.26538 c -1.4e-4,-22.13502 -10.86478,-33.20274 -32.59392,-33.20316 l -61.53246,0 0,-17.3631 c 66.2031,-7.10728 112.09856,-20.71346 137.68652,-40.81856 l 0,392.6502 c -2.2e-4,18.88626 6.29514,31.78166 18.88618,38.68626 8.7321,4.8739 30.05522,7.31082 63.96942,7.3108 l 0,19.49542" />
    <path
       inkscape:connector-curvature="0"
       id="path3154"
       style="font-size:200px;font-style:normal;font-variant:normal;font-weight:normal;font-stretch:normal;line-height:125%;letter-spacing:0px;word-spacing:0px;fill:none;stroke:#000000;stroke-width:3.1023109;stroke-opacity:1;font-family:TakaoPMincho;-inkscape-font-specification:TakaoPMincho"
       d="m 982.82906,455.65296 -80.28442,0 0,55.44169 c -2.4e-4,19.79345 3.93822,32.41675 11.81546,37.87 7.47272,5.04938 24.0345,8.58392 49.68544,10.6036 l 0,17.26874 -168.14284,0 0,-17.26874 c 23.83266,-1.41378 39.78856,-3.93844 47.8677,-7.57398 12.92606,-5.45326 19.38922,-19.08645 19.38944,-40.89962 l 0,-55.44169 -213.58682,0 0,-29.69007 229.6437,-293.56833 23.32792,0 0,296.59792 80.28442,0 0,26.66048 m -119.66922,-26.66048 0,-233.27926 -182.07898,233.27926 182.07898,0" />
  </g>
</svg>
