<?xml version="1.0" encoding="UTF-8" standalone="no"?>
<!-- Created with Inkscape (http://www.inkscape.org/) -->

<svg
   xmlns:dc="http://purl.org/dc/elements/1.1/"
   xmlns:cc="http://creativecommons.org/ns#"
   xmlns:rdf="http://www.w3.org/1999/02/22-rdf-syntax-ns#"
   xmlns:svg="http://www.w3.org/2000/svg"
   xmlns="http://www.w3.org/2000/svg"
   xmlns:sodipodi="http://sodipodi.sourceforge.net/DTD/sodipodi-0.dtd"
   xmlns:inkscape="http://www.inkscape.org/namespaces/inkscape"
   width="744.09448"
   height="1052.3622"
   id="svg3649"
   version="1.1"
   inkscape:version="0.48.4 r9939"
   sodipodi:docname="2014-3.svg">
  <defs
     id="defs3651" />
  <sodipodi:namedview
     id="base"
     pagecolor="#ffffff"
     bordercolor="#666666"
     borderopacity="1.0"
     inkscape:pageopacity="0.0"
     inkscape:pageshadow="2"
     inkscape:zoom="0.61626974"
     inkscape:cx="570.73113"
     inkscape:cy="780.08443"
     inkscape:document-units="px"
     inkscape:current-layer="layer2"
     showgrid="false"
     inkscape:window-width="1220"
     inkscape:window-height="856"
     inkscape:window-x="630"
     inkscape:window-y="24"
     inkscape:window-maximized="0"
     fit-margin-top="0"
     fit-margin-left="0"
     fit-margin-right="0"
     fit-margin-bottom="0"
     units="mm" />
  <metadata
     id="metadata3654">
    <rdf:RDF>
      <cc:Work
         rdf:about="">
        <dc:format>image/svg+xml</dc:format>
        <dc:type
           rdf:resource="http://purl.org/dc/dcmitype/StillImage" />
        <dc:title></dc:title>
      </cc:Work>
    </rdf:RDF>
  </metadata>
  <g
     inkscape:groupmode="layer"
     id="layer2"
     inkscape:label="Layer">
    <path
       inkscape:connector-curvature="0"
       id="path3148"
       style="font-size:200px;font-style:normal;font-variant:normal;font-weight:normal;font-stretch:normal;line-height:125%;letter-spacing:0px;word-spacing:0px;fill:none;stroke:#000000;stroke-width:0.3214272;stroke-opacity:1;font-family:TakaoPMincho;-inkscape-font-specification:TakaoPMincho"
       d="m 352.36597,361.55527 -1.53808,13.18354 -28.21905,0 0,-2.57393 c 1.42298,-6.11045 5.77563,-12.13721 13.05798,-18.08028 l 1.03585,-0.84751 c 3.49466,-2.67854 5.81747,-4.81301 6.96844,-6.40344 1.63222,-2.21815 2.44834,-4.57235 2.44837,-7.0626 -3e-5,-3.43187 -1.10912,-6.0058 -3.32727,-7.72179 -1.63228,-1.23461 -3.58888,-1.85193 -5.86982,-1.85197 -3.64118,4e-5 -6.28835,1.17191 -7.94151,3.51561 -0.87891,1.25561 -1.34975,2.5635 -1.41252,3.92367 2.05076,0.0628 3.07614,1.06727 3.07616,3.01338 -2e-5,2.09266 -1.0254,3.13897 -3.07616,3.13894 -2.53209,3e-5 -3.79812,-1.43342 -3.79811,-4.30035 -10e-6,-2.90871 1.20325,-5.55588 3.60977,-7.94151 2.46929,-2.49018 5.72332,-3.73529 9.7621,-3.73534 3.78763,5e-5 6.95795,0.98358 9.51098,2.9506 2.99242,2.30193 4.48865,5.40948 4.48868,9.32265 -3e-5,2.69952 -0.79523,5.15835 -2.38559,7.3765 -1.46487,2.11358 -4.35269,4.56195 -8.66347,7.34512 l -1.78919,1.1614 c -6.96846,4.45731 -11.05954,9.40636 -12.27325,14.84718 l 17.01304,0 c 2.65761,0 4.39448,-0.5964 5.21064,-1.7892 0.77424,-1.02538 1.52758,-3.5156 2.26003,-7.47067 l 1.85198,0" />
    <path
       inkscape:connector-curvature="0"
       id="path3150"
       style="font-size:200px;font-style:normal;font-variant:normal;font-weight:normal;font-stretch:normal;line-height:125%;letter-spacing:0px;word-spacing:0px;fill:none;stroke:#000000;stroke-width:0.30890623;stroke-opacity:1;font-family:TakaoPMincho;-inkscape-font-specification:TakaoPMincho"
       d="m 366.36338,328.15007 c 5.1283,4e-5 9.01979,2.39326 11.67448,7.17965 2.39319,4.16303 3.58979,9.5528 3.58983,16.16932 -4e-5,6.61656 -1.23687,12.0566 -3.7105,16.32014 -2.65469,4.64566 -6.44562,6.96849 -11.37281,6.96849 -4.94734,0 -8.74834,-2.32283 -11.40299,-6.96849 -2.43344,-4.30376 -3.65016,-9.76392 -3.65016,-16.38048 0,-9.15051 2.12171,-15.75699 6.36516,-19.81947 2.43343,-2.31273 5.26909,-3.46912 8.50699,-3.46916 m 0.24133,2.17199 c -2.95635,5e-5 -5.33951,1.58882 -7.14949,4.76633 -2.17201,3.9217 -3.258,9.38185 -3.258,16.38048 0,5.85234 0.78433,10.62872 2.353,14.32914 1.89043,4.48478 4.57526,6.72717 8.05449,6.72717 3.57975,0 6.29474,-2.33289 8.14499,-6.99866 1.44797,-3.61999 2.17196,-8.28575 2.172,-13.99732 -4e-5,-6.07352 -0.78437,-10.9605 -2.353,-14.66098 -1.83014,-4.36406 -4.4848,-6.54611 -7.96399,-6.54616" />
    <path
       inkscape:connector-curvature="0"
       id="path3152"
       style="font-size:200px;font-style:normal;font-variant:normal;font-weight:normal;font-stretch:normal;line-height:125%;letter-spacing:0px;word-spacing:0px;fill:none;stroke:#000000;stroke-width:0.3119269;stroke-opacity:1;font-family:TakaoPMincho;-inkscape-font-specification:TakaoPMincho"
       d="m 400.46697,374.27757 -21.26221,0 0,-1.94954 c 3.43199,0 5.59477,-0.20307 6.48832,-0.60923 1.42153,-0.60923 2.1323,-1.93939 2.13231,-3.99047 l 0,-30.12654 c -1e-5,-2.2135 -1.08648,-3.32028 -3.25939,-3.32032 l -6.15325,0 0,-1.73631 c 6.62031,-0.71073 11.20986,-2.07134 13.76866,-4.08185 l 0,39.26502 c -3e-5,1.88862 0.62951,3.17816 1.88861,3.86862 0.87321,0.48739 3.00553,0.73108 6.39695,0.73108 l 0,1.94954" />
    <path
       inkscape:connector-curvature="0"
       id="path3154"
       style="font-size:200px;font-style:normal;font-variant:normal;font-weight:normal;font-stretch:normal;line-height:125%;letter-spacing:0px;word-spacing:0px;fill:none;stroke:#000000;stroke-width:0.31023109;stroke-opacity:1;font-family:TakaoPMincho;-inkscape-font-specification:TakaoPMincho"
       d="m 426.21301,361.85099 -8.02844,0 0,5.54417 c -2e-5,1.97935 0.39382,3.24168 1.18155,3.787 0.74727,0.50494 2.40345,0.85839 4.96854,1.06036 l 0,1.72688 -16.81428,0 0,-1.72688 c 2.38326,-0.14138 3.97885,-0.39384 4.78677,-0.7574 1.2926,-0.54532 1.93892,-1.90864 1.93894,-4.08996 l 0,-5.54417 -21.35868,0 0,-2.969 22.96437,-29.35684 2.33279,0 0,29.6598 8.02844,0 0,2.66604 m -11.96692,-2.66604 0,-23.32793 -18.2079,23.32793 18.2079,0" />
  </g>
</svg>
