<?xml version="1.0" encoding="UTF-8" standalone="no"?>
<!-- Created with Inkscape (http://www.inkscape.org/) -->

<svg
   xmlns:dc="http://purl.org/dc/elements/1.1/"
   xmlns:cc="http://creativecommons.org/ns#"
   xmlns:rdf="http://www.w3.org/1999/02/22-rdf-syntax-ns#"
   xmlns:svg="http://www.w3.org/2000/svg"
   xmlns="http://www.w3.org/2000/svg"
   xmlns:sodipodi="http://sodipodi.sourceforge.net/DTD/sodipodi-0.dtd"
   xmlns:inkscape="http://www.inkscape.org/namespaces/inkscape"
   width="744.09448"
   height="1052.3622"
   id="svg3649"
   version="1.1"
   inkscape:version="0.48.4 r9939"
   sodipodi:docname="2014-1.svg">
  <defs
     id="defs3651" />
  <sodipodi:namedview
     id="base"
     pagecolor="#ffffff"
     bordercolor="#666666"
     borderopacity="1.0"
     inkscape:pageopacity="0.0"
     inkscape:pageshadow="2"
     inkscape:zoom="0.61626974"
     inkscape:cx="312.42559"
     inkscape:cy="856.34219"
     inkscape:document-units="px"
     inkscape:current-layer="layer2"
     showgrid="false"
     inkscape:window-width="1220"
     inkscape:window-height="856"
     inkscape:window-x="630"
     inkscape:window-y="24"
     inkscape:window-maximized="0"
     fit-margin-top="0"
     fit-margin-left="0"
     fit-margin-right="0"
     fit-margin-bottom="0"
     units="mm" />
  <metadata
     id="metadata3654">
    <rdf:RDF>
      <cc:Work
         rdf:about="">
        <dc:format>image/svg+xml</dc:format>
        <dc:type
           rdf:resource="http://purl.org/dc/dcmitype/StillImage" />
        <dc:title></dc:title>
      </cc:Work>
    </rdf:RDF>
  </metadata>
  <g
     inkscape:groupmode="layer"
     id="layer2"
     inkscape:label="Layer">
    <path
       inkscape:connector-curvature="0"
       id="path3148"
       style="font-size:200px;font-style:normal;font-variant:normal;font-weight:normal;font-stretch:normal;line-height:125%;letter-spacing:0px;word-spacing:0px;fill:none;stroke:#000000;stroke-width:1.60713601;stroke-opacity:1;font-family:TakaoPMincho;-inkscape-font-specification:TakaoPMincho"
       d="m 175.59244,400.95425 -7.6904,65.9177 -141.095242,0 0,-12.86964 c 7.11489,-30.55228 28.87817,-60.68605 65.28989,-90.4014 l 5.17926,-4.23757 c 17.473312,-13.39268 29.087362,-24.06506 34.842212,-32.01717 8.1611,-11.09075 12.24171,-22.86177 12.24186,-35.31304 -1.5e-4,-17.15934 -5.5456,-30.02897 -16.63638,-38.60894 -8.16136,-6.17302 -17.94437,-9.25964 -29.349072,-9.25986 -18.20591,2.2e-4 -31.44175,5.85957 -39.70756,17.57805 -4.39457,6.27808 -6.74877,12.81752 -7.06261,19.61835 10.2538,0.31409 15.38073,5.33639 15.38081,15.0669 -8e-5,10.4633 -5.12701,15.69485 -15.38081,15.6947 -12.66042,1.5e-4 -18.99059,-7.16709 -18.99056,-21.50173 -3e-5,-14.54355 6.01625,-27.77939 18.04889,-39.70756 12.34642,-12.45088 28.61657,-18.67644 48.81048,-18.67669 18.938132,2.5e-4 34.789752,4.91792 47.554902,14.75302 14.96211,11.50965 22.44323,27.04737 22.44341,46.61322 -1.8e-4,13.4976 -3.97617,25.79176 -11.92797,36.88252 -7.32433,10.56789 -21.76344,22.80973 -43.31733,36.72557 l -8.94598,5.80703 c -34.842282,22.28653 -55.297662,47.0318 -61.366232,74.23588 l 85.065202,0 c 13.28803,2e-5 21.97241,-2.98197 26.05319,-8.94597 3.8712,-5.1269 7.63791,-17.57801 11.30017,-37.35337 l 9.25987,0" />
    <path
       inkscape:connector-curvature="0"
       id="path3150"
       style="font-size:200px;font-style:normal;font-variant:normal;font-weight:normal;font-stretch:normal;line-height:125%;letter-spacing:0px;word-spacing:0px;fill:none;stroke:#000000;stroke-width:1.54453111;stroke-opacity:1;font-family:TakaoPMincho;-inkscape-font-specification:TakaoPMincho"
       d="m 274.87283,233.15377 c 25.6415,2.3e-4 45.09897,11.96631 58.37242,35.89828 11.96593,20.81515 17.94896,47.76396 17.94913,80.84656 -1.7e-4,33.08281 -6.18431,60.28302 -18.55247,81.60072 -13.27345,23.22831 -32.22812,34.84244 -56.86408,34.84245 -24.7367,-1e-5 -43.74166,-11.61414 -57.01493,-34.84245 -12.16722,-21.51881 -18.25081,-48.81958 -18.25079,-81.90238 -2e-5,-45.75256 10.60856,-78.78498 31.82579,-99.09737 12.16713,-11.56365 26.34543,-17.34558 42.53493,-17.34581 m 1.20667,10.85998 c -14.78174,2.3e-4 -26.69753,7.9441 -35.74745,23.83164 -10.86003,19.60848 -16.29001,46.90924 -16.28998,81.9024 -3e-5,29.2617 3.92162,53.14359 11.76498,71.64571 9.45215,22.42389 22.87628,33.6358 40.27245,33.6358 17.89875,0 31.47371,-11.66441 40.72494,-34.99328 7.23984,-18.09992 10.85983,-41.42875 10.85999,-69.98657 -1.6e-4,-30.36761 -3.92182,-54.80254 -11.76499,-73.30491 -9.15067,-21.82031 -22.42397,-32.73056 -39.81994,-32.73079" />
    <path
       inkscape:connector-curvature="0"
       id="path3152"
       style="font-size:200px;font-style:normal;font-variant:normal;font-weight:normal;font-stretch:normal;line-height:125%;letter-spacing:0px;word-spacing:0px;fill:none;stroke:#000000;stroke-width:1.55963457;stroke-opacity:1;font-family:TakaoPMincho;-inkscape-font-specification:TakaoPMincho"
       d="m 499.74604,465.90611 -106.31105,0 0,-9.74771 c 17.15999,1e-5 27.97386,-1.01537 32.44163,-3.04617 7.10762,-3.04614 10.66148,-9.69692 10.66155,-19.95236 l 0,-150.63269 c -7e-5,-11.06751 -5.43239,-16.60137 -16.29696,-16.60158 l -30.76623,0 0,-8.68155 c 33.10155,-3.55364 56.04928,-10.35673 68.84326,-20.40928 l 0,196.3251 c -1.1e-4,9.44313 3.14757,15.89083 9.44309,19.34313 4.36605,2.43695 15.02761,3.65541 31.98471,3.6554 l 0,9.74771" />
    <path
       inkscape:connector-curvature="0"
       id="path3154"
       style="font-size:200px;font-style:normal;font-variant:normal;font-weight:normal;font-stretch:normal;line-height:125%;letter-spacing:0px;word-spacing:0px;fill:none;stroke:#000000;stroke-width:1.55115545;stroke-opacity:1;font-family:TakaoPMincho;-inkscape-font-specification:TakaoPMincho"
       d="m 665.85113,405.13437 -40.14221,0 0,27.72084 c -1.2e-4,9.89673 1.96911,16.20838 5.90773,18.935 3.73636,2.52469 12.01725,4.29196 24.84272,5.3018 l 0,8.63437 -84.07142,0 0,-8.63437 c 11.91633,-0.70689 19.89428,-1.96922 23.93385,-3.78699 6.46303,-2.72663 9.69461,-9.54322 9.69472,-20.44981 l 0,-27.72084 -106.79341,0 0,-14.84504 114.82185,-146.78416 11.66396,0 0,148.29896 40.14221,0 0,13.33024 m -59.83461,-13.33024 0,-116.63963 -91.03949,116.63963 91.03949,0" />
  </g>
</svg>
