<?xml version="1.0" encoding="UTF-8" standalone="no"?>
<!-- Created with Inkscape (http://www.inkscape.org/) -->

<svg
   xmlns:dc="http://purl.org/dc/elements/1.1/"
   xmlns:cc="http://creativecommons.org/ns#"
   xmlns:rdf="http://www.w3.org/1999/02/22-rdf-syntax-ns#"
   xmlns:svg="http://www.w3.org/2000/svg"
   xmlns="http://www.w3.org/2000/svg"
   xmlns:sodipodi="http://sodipodi.sourceforge.net/DTD/sodipodi-0.dtd"
   xmlns:inkscape="http://www.inkscape.org/namespaces/inkscape"
   width="744.09448819"
   height="1052.3622047"
   id="svg2"
   version="1.1"
   inkscape:version="0.48.4 r9939"
   sodipodi:docname="a3.svg">
  <defs
     id="defs4" />
  <sodipodi:namedview
     id="base"
     pagecolor="#ffffff"
     bordercolor="#666666"
     borderopacity="1.0"
     inkscape:pageopacity="0.0"
     inkscape:pageshadow="2"
     inkscape:zoom="0.49497475"
     inkscape:cx="371.11392"
     inkscape:cy="829.6332"
     inkscape:document-units="px"
     inkscape:current-layer="layer1"
     showgrid="false"
     inkscape:window-width="1377"
     inkscape:window-height="915"
     inkscape:window-x="166"
     inkscape:window-y="34"
     inkscape:window-maximized="0" />
  <metadata
     id="metadata7">
    <rdf:RDF>
      <cc:Work
         rdf:about="">
        <dc:format>image/svg+xml</dc:format>
        <dc:type
           rdf:resource="http://purl.org/dc/dcmitype/StillImage" />
        <dc:title />
      </cc:Work>
    </rdf:RDF>
  </metadata>
  <g
     inkscape:label="Layer 1"
     inkscape:groupmode="layer"
     id="layer1">
    <path
       inkscape:connector-curvature="0"
       id="path3786-1"
       style="font-size:144px;font-style:normal;font-variant:normal;font-weight:normal;font-stretch:normal;line-height:125%;letter-spacing:0px;word-spacing:0px;fill:none;stroke:#000000;stroke-width:0.82921898;stroke-opacity:1;font-family:TakaoPMincho;-inkscape-font-specification:TakaoPMincho"
       d="m -622.37715,533.30053 c -1.7492,4.12019 -4.6061,6.18027 -8.5708,6.18027 -5.5973,0 -8.5124,-3.40109 -8.7456,-10.20328 -4.8588,6.95767 -11.6221,10.4365 -20.29,10.4365 -5.2474,0 -9.6202,-1.37987 -13.1185,-4.13962 -3.7315,-3.03182 -5.5972,-7.09369 -5.5972,-12.18563 0,-12.55487 10.7086,-19.49309 32.1257,-20.81469 l 6.0637,-0.34983 0,-2.15726 c 0,-11.9718 -4.7033,-17.95772 -14.1097,-17.95778 -6.258,6e-5 -10.5142,2.07958 -12.7686,6.23858 2.2544,0.34988 3.3816,1.78805 3.3816,4.31453 0,3.42057 -1.7491,5.13083 -5.2474,5.13079 -3.8481,4e-5 -5.7721,-1.94344 -5.7721,-5.83044 0,-3.265 1.8268,-6.25796 5.4806,-8.97889 4.3534,-3.26499 9.5425,-4.89752 15.5673,-4.89757 13.993,5e-5 20.9895,6.97715 20.9896,20.9313 l 0,24.25466 c -10e-5,7.96828 1.3604,11.95241 4.0813,11.95241 1.6713,0 3.0901,-1.20496 4.2562,-3.61489 l 2.2739,1.69084 m -18.1327,-10.4948 0,-16.38356 -5.0142,0.23322 c -16.5585,0.8163 -24.8377,6.16086 -24.8377,16.03373 0,3.65376 1.1467,6.64672 3.44,8.97889 2.2544,2.21557 5.0919,3.32335 8.5125,3.32335 4.6643,0 8.8428,-1.43817 12.5354,-4.31453 2.4876,-2.02121 4.2756,-4.64491 5.364,-7.8711" />
  </g>
</svg>
