<?xml version="1.0" encoding="UTF-8" standalone="no"?>
<!-- Created with Inkscape (http://www.inkscape.org/) -->

<svg
   xmlns:dc="http://purl.org/dc/elements/1.1/"
   xmlns:cc="http://creativecommons.org/ns#"
   xmlns:rdf="http://www.w3.org/1999/02/22-rdf-syntax-ns#"
   xmlns:svg="http://www.w3.org/2000/svg"
   xmlns="http://www.w3.org/2000/svg"
   xmlns:sodipodi="http://sodipodi.sourceforge.net/DTD/sodipodi-0.dtd"
   xmlns:inkscape="http://www.inkscape.org/namespaces/inkscape"
   width="744.09448819"
   height="1052.3622047"
   id="svg2"
   version="1.1"
   inkscape:version="0.48.4 r9939"
   sodipodi:docname="aa2.svg">
  <defs
     id="defs4" />
  <sodipodi:namedview
     id="base"
     pagecolor="#ffffff"
     bordercolor="#666666"
     borderopacity="1.0"
     inkscape:pageopacity="0.0"
     inkscape:pageshadow="2"
     inkscape:zoom="0.49497475"
     inkscape:cx="296.67954"
     inkscape:cy="593.80436"
     inkscape:document-units="px"
     inkscape:current-layer="layer1"
     showgrid="false"
     inkscape:window-width="1032"
     inkscape:window-height="982"
     inkscape:window-x="279"
     inkscape:window-y="70"
     inkscape:window-maximized="0" />
  <metadata
     id="metadata7">
    <rdf:RDF>
      <cc:Work
         rdf:about="">
        <dc:format>image/svg+xml</dc:format>
        <dc:type
           rdf:resource="http://purl.org/dc/dcmitype/StillImage" />
        <dc:title />
      </cc:Work>
    </rdf:RDF>
  </metadata>
  <g
     inkscape:label="Layer 1"
     inkscape:groupmode="layer"
     id="layer1">
    <g
       style="font-size:144px;font-style:normal;font-variant:normal;font-weight:normal;font-stretch:normal;line-height:125%;letter-spacing:0px;word-spacing:0px;fill:none;stroke:#000000;stroke-opacity:1;font-family:TakaoMincho;-inkscape-font-specification:TakaoMincho"
       id="text3008"
       transform="matrix(5.0292959,0,0,5.0292959,-5581.4161,-57.60178)">
      <path
         d="m 1235.4714,84.194366 c -11.3438,13.921921 -22.1954,20.882854 -32.5547,20.882814 -7.9219,4e-5 -17.4141,-4.03121 -28.4765,-12.093751 -10.4532,-7.546816 -18.8673,-11.32025 -25.2422,-11.320313 -8.25,6.3e-5 -17.7422,5.062558 -28.4766,15.1875 l -2.4609,-2.320312 c 11.3437,-13.874937 22.0547,-20.81243 32.1328,-20.8125 8.1093,7e-5 18.5624,4.593816 31.3594,13.78125 8.7186,6.421925 16.3124,9.632859 22.7812,9.632812 8.2499,4.7e-5 17.7421,-5.085885 28.4766,-15.257812 l 2.4609,2.320312"
         style="fill:none;stroke:#000000;stroke-opacity:1"
         id="path3015"
         inkscape:connector-curvature="0" />
    </g>
  </g>
</svg>
