<?xml version="1.0" encoding="UTF-8" standalone="no"?>
<!-- Created with Inkscape (http://www.inkscape.org/) -->

<svg
   xmlns:dc="http://purl.org/dc/elements/1.1/"
   xmlns:cc="http://creativecommons.org/ns#"
   xmlns:rdf="http://www.w3.org/1999/02/22-rdf-syntax-ns#"
   xmlns:svg="http://www.w3.org/2000/svg"
   xmlns="http://www.w3.org/2000/svg"
   xmlns:sodipodi="http://sodipodi.sourceforge.net/DTD/sodipodi-0.dtd"
   xmlns:inkscape="http://www.inkscape.org/namespaces/inkscape"
   width="744.09448819"
   height="1052.3622047"
   id="svg2"
   version="1.1"
   inkscape:version="0.48.4 r9939"
   sodipodi:docname="k1.svg">
  <defs
     id="defs4" />
  <sodipodi:namedview
     id="base"
     pagecolor="#ffffff"
     bordercolor="#666666"
     borderopacity="1.0"
     inkscape:pageopacity="0.0"
     inkscape:pageshadow="2"
     inkscape:zoom="0.49497475"
     inkscape:cx="1133.3064"
     inkscape:cy="829.6332"
     inkscape:document-units="px"
     inkscape:current-layer="layer1"
     showgrid="false"
     inkscape:window-width="1199"
     inkscape:window-height="933"
     inkscape:window-x="166"
     inkscape:window-y="34"
     inkscape:window-maximized="0" />
  <metadata
     id="metadata7">
    <rdf:RDF>
      <cc:Work
         rdf:about="">
        <dc:format>image/svg+xml</dc:format>
        <dc:type
           rdf:resource="http://purl.org/dc/dcmitype/StillImage" />
        <dc:title />
      </cc:Work>
    </rdf:RDF>
  </metadata>
  <g
     inkscape:label="Layer 1"
     inkscape:groupmode="layer"
     id="layer1">
    <path
       inkscape:connector-curvature="0"
       id="path3788"
       style="font-size:144px;font-style:normal;font-variant:normal;font-weight:normal;font-stretch:normal;line-height:125%;letter-spacing:0px;word-spacing:0px;fill:none;stroke:#000000;stroke-width:0.8720063;stroke-opacity:1;font-family:TakaoPMincho;-inkscape-font-specification:TakaoPMincho"
       d="m 1324.3598,544.01222 -26.1193,0 0,-3.49485 c 4.3736,10e-6 6.5604,-0.87881 6.5605,-2.63645 -10e-5,-0.85838 -0.9607,-2.49339 -2.8817,-4.90503 l -17.4742,-21.03034 -7.5415,6.31523 0,14.28592 c 0,3.76053 0.9605,6.02911 2.8817,6.80574 1.8802,0.77663 4.6802,1.16494 8.3999,1.16493 l 0,3.49485 -30.5952,0 0,-3.49485 c 2.943,10e-6 5.2729,-0.26568 6.9897,-0.79706 2.6977,-0.73575 4.0466,-3.12696 4.0466,-7.17361 l 0,-65.54354 c 0,-3.8422 -0.9606,-6.13122 -2.8817,-6.86705 -1.2671,-0.5313 -3.9444,-0.79698 -8.032,-0.79708 l 0,-3.8627 c 6.908,-0.12255 13.3049,-0.75611 19.191,-1.9007 l 0,59.41223 21.8274,-18.27125 c 2.616,-2.08459 3.924,-3.74003 3.924,-4.96636 0,-1.63495 -2.7182,-2.51376 -8.1546,-2.63644 l 0,-3.67878 27.1003,0 0,3.67878 c -4.5372,0.36793 -9.4831,2.69782 -14.8377,6.98967 l -16.5545,13.48885 20.1107,23.97336 c 4.9049,5.9678 9.5852,8.95169 14.0406,8.95168 l 0,3.49485" />
  </g>
</svg>
