<?xml version="1.0" encoding="UTF-8" standalone="no"?>
<!-- Created with Inkscape (http://www.inkscape.org/) -->

<svg
   xmlns:dc="http://purl.org/dc/elements/1.1/"
   xmlns:cc="http://creativecommons.org/ns#"
   xmlns:rdf="http://www.w3.org/1999/02/22-rdf-syntax-ns#"
   xmlns:svg="http://www.w3.org/2000/svg"
   xmlns="http://www.w3.org/2000/svg"
   xmlns:sodipodi="http://sodipodi.sourceforge.net/DTD/sodipodi-0.dtd"
   xmlns:inkscape="http://www.inkscape.org/namespaces/inkscape"
   width="744.09448819"
   height="1052.3622047"
   id="svg2"
   version="1.1"
   inkscape:version="0.48.4 r9939"
   sodipodi:docname="Makers2.svg">
  <defs
     id="defs4" />
  <sodipodi:namedview
     id="base"
     pagecolor="#ffffff"
     bordercolor="#666666"
     borderopacity="1.0"
     inkscape:pageopacity="0.0"
     inkscape:pageshadow="2"
     inkscape:zoom="0.49497475"
     inkscape:cx="296.67954"
     inkscape:cy="593.80436"
     inkscape:document-units="px"
     inkscape:current-layer="layer1"
     showgrid="false"
     inkscape:window-width="1032"
     inkscape:window-height="982"
     inkscape:window-x="279"
     inkscape:window-y="70"
     inkscape:window-maximized="0" />
  <metadata
     id="metadata7">
    <rdf:RDF>
      <cc:Work
         rdf:about="">
        <dc:format>image/svg+xml</dc:format>
        <dc:type
           rdf:resource="http://purl.org/dc/dcmitype/StillImage" />
        <dc:title />
      </cc:Work>
    </rdf:RDF>
  </metadata>
  <g
     inkscape:label="Layer 1"
     inkscape:groupmode="layer"
     id="layer1">
    <path
       inkscape:connector-curvature="0"
       id="path3784"
       style="font-size:144px;font-style:normal;font-variant:normal;font-weight:normal;font-stretch:normal;line-height:125%;letter-spacing:0px;word-spacing:0px;fill:none;stroke:#000000;stroke-width:5.76455736;stroke-opacity:1;font-family:TakaoPMincho;-inkscape-font-specification:TakaoPMincho"
       d="m 735.73816,653.53829 -224.95279,0 0,-23.10332 c 29.18232,-1.89146 49.17828,-5.26909 59.98744,-10.133 15.94181,-6.75529 23.91315,-25.53514 23.91381,-56.33954 l 0,-455.17482 -2.432,0 -209.55067,544.75068 -28.7776,0 -208.74015,-543.94007 -3.24253,0 0,455.17487 c -2.2e-4,28.37245 7.16038,46.34169 21.48203,53.90762 12.42955,6.21493 32.42529,10.13304 59.98744,11.75426 l 0,23.10332 -205.092242,0 0,-23.10332 c 27.02136,-1.89146 46.74693,-5.26909 59.17691,-10.133 15.94247,-7.5659 23.913822,-26.07556 23.913822,-55.52888 l 0,-405.32045 c 0,-29.99315 -7.160832,-48.773 -21.482032,-56.33954 -9.72781,-5.133507 -31.34481,-9.051581 -64.85123,-11.754289 l 0,-23.103247 173.477262,0 190.90579,495.706866 189.28475,-495.706866 166.99199,0 0,23.103247 c -26.75188,1.621858 -46.74768,5.53991 -59.98744,11.754289 -16.4837,7.56654 -24.72522,26.07615 -24.72456,55.52888 l 0,405.32045 c -6.6e-4,28.91294 7.15995,47.15235 21.48203,54.71828 11.34826,5.94475 32.42487,9.8628 63.22997,11.75426 l 0,23.10332" />
  </g>
</svg>
