<?xml version="1.0" encoding="UTF-8" standalone="no"?>
<!-- Created with Inkscape (http://www.inkscape.org/) -->

<svg
   xmlns:dc="http://purl.org/dc/elements/1.1/"
   xmlns:cc="http://creativecommons.org/ns#"
   xmlns:rdf="http://www.w3.org/1999/02/22-rdf-syntax-ns#"
   xmlns:svg="http://www.w3.org/2000/svg"
   xmlns="http://www.w3.org/2000/svg"
   xmlns:sodipodi="http://sodipodi.sourceforge.net/DTD/sodipodi-0.dtd"
   xmlns:inkscape="http://www.inkscape.org/namespaces/inkscape"
   width="744.09448819"
   height="1052.3622047"
   id="svg2"
   version="1.1"
   inkscape:version="0.48.4 r9939"
   sodipodi:docname="s1.svg">
  <defs
     id="defs4" />
  <sodipodi:namedview
     id="base"
     pagecolor="#ffffff"
     bordercolor="#666666"
     borderopacity="1.0"
     inkscape:pageopacity="0.0"
     inkscape:pageshadow="2"
     inkscape:zoom="0.49497475"
     inkscape:cx="1133.3064"
     inkscape:cy="829.6332"
     inkscape:document-units="px"
     inkscape:current-layer="layer1"
     showgrid="false"
     inkscape:window-width="1199"
     inkscape:window-height="933"
     inkscape:window-x="166"
     inkscape:window-y="34"
     inkscape:window-maximized="0" />
  <metadata
     id="metadata7">
    <rdf:RDF>
      <cc:Work
         rdf:about="">
        <dc:format>image/svg+xml</dc:format>
        <dc:type
           rdf:resource="http://purl.org/dc/dcmitype/StillImage" />
        <dc:title />
      </cc:Work>
    </rdf:RDF>
  </metadata>
  <g
     inkscape:label="Layer 1"
     inkscape:groupmode="layer"
     id="layer1">
    <path
       inkscape:connector-curvature="0"
       id="path3794"
       style="font-size:144px;font-style:normal;font-variant:normal;font-weight:normal;font-stretch:normal;line-height:125%;letter-spacing:0px;word-spacing:0px;fill:none;stroke:#000000;stroke-width:1.00352216;stroke-opacity:1;font-family:TakaoPMincho;-inkscape-font-specification:TakaoPMincho"
       d="m 1299.6091,491.34723 c -0.7527,-5.45659 -2.6813,-9.76076 -5.7859,-12.9125 -4.0455,-4.04539 -8.9142,-6.06811 -14.606,-6.06818 -4.704,7e-5 -8.6084,1.55239 -11.7129,4.65698 -2.211,2.35206 -3.3164,5.15095 -3.3164,8.39665 0,5.64486 4.8686,9.99607 14.606,13.05363 l 3.7397,1.12896 c 8.0438,2.58724 13.7356,5.15093 17.0755,7.69106 4.798,3.62211 7.1971,8.44372 7.1971,14.46483 0,7.1501 -2.7048,12.53619 -8.1144,16.15827 -4.1866,2.86945 -9.3375,4.30417 -15.4527,4.30418 -5.4096,-10e-6 -11.172,-1.66993 -17.2872,-5.00977 -2.0698,-1.22305 -3.6691,-1.83457 -4.7981,-1.83458 -1.5523,10e-6 -2.3284,1.66994 -2.3284,5.00978 l -4.1631,0 0,-26.46006 4.4453,0 c 0.4704,6.82084 2.5401,12.06581 6.2093,15.73491 4.704,4.84514 10.584,7.2677 17.64,7.2677 10.0195,0 15.0293,-4.44528 15.0293,-13.33586 0,-3.90432 -1.4818,-7.07952 -4.4453,-9.52563 -2.0227,-1.59933 -6.7032,-3.66909 -14.0415,-6.20929 l -4.3041,-1.48176 c -6.6327,-2.16382 -11.0779,-4.18654 -13.3359,-6.06818 -4.2336,-3.3398 -6.3504,-7.71452 -6.3504,-13.12418 0,-5.26844 1.9757,-9.8078 5.927,-13.61812 4.3278,-4.04537 9.9726,-6.0681 16.9345,-6.06817 6.0211,7e-5 11.4072,1.4348 16.1583,4.30417 1.3641,0.79975 2.5166,1.19959 3.4574,1.19952 1.0819,7e-5 1.764,-1.38761 2.0463,-4.16304 l 3.5985,0 0,22.50868 -4.0219,0" />
  </g>
</svg>
