<?xml version="1.0" encoding="UTF-8" standalone="no"?>
<!-- Created with Inkscape (http://www.inkscape.org/) -->

<svg
   xmlns:dc="http://purl.org/dc/elements/1.1/"
   xmlns:cc="http://creativecommons.org/ns#"
   xmlns:rdf="http://www.w3.org/1999/02/22-rdf-syntax-ns#"
   xmlns:svg="http://www.w3.org/2000/svg"
   xmlns="http://www.w3.org/2000/svg"
   xmlns:sodipodi="http://sodipodi.sourceforge.net/DTD/sodipodi-0.dtd"
   xmlns:inkscape="http://www.inkscape.org/namespaces/inkscape"
   width="744.09448819"
   height="1052.3622047"
   id="svg2"
   version="1.1"
   inkscape:version="0.48.4 r9939"
   sodipodi:docname="saka2.svg">
  <defs
     id="defs4" />
  <sodipodi:namedview
     id="base"
     pagecolor="#ffffff"
     bordercolor="#666666"
     borderopacity="1.0"
     inkscape:pageopacity="0.0"
     inkscape:pageshadow="2"
     inkscape:zoom="0.49497475"
     inkscape:cx="296.67954"
     inkscape:cy="593.80436"
     inkscape:document-units="px"
     inkscape:current-layer="layer1"
     showgrid="false"
     inkscape:window-width="1032"
     inkscape:window-height="982"
     inkscape:window-x="279"
     inkscape:window-y="70"
     inkscape:window-maximized="0" />
  <metadata
     id="metadata7">
    <rdf:RDF>
      <cc:Work
         rdf:about="">
        <dc:format>image/svg+xml</dc:format>
        <dc:type
           rdf:resource="http://purl.org/dc/dcmitype/StillImage" />
        <dc:title />
      </cc:Work>
    </rdf:RDF>
  </metadata>
  <g
     inkscape:label="Layer 1"
     inkscape:groupmode="layer"
     id="layer1">
    <g
       style="font-size:144px;font-style:normal;font-variant:normal;font-weight:normal;font-stretch:normal;line-height:125%;letter-spacing:0px;word-spacing:0px;fill:none;stroke:#000000;stroke-opacity:1;font-family:TakaoMincho;-inkscape-font-specification:TakaoMincho"
       id="text2988"
       transform="matrix(4.6613168,0,0,4.6613168,-4409.5271,-300.139)">
      <path
         d="m 1021.4543,128.95595 c -10e-5,15.32817 -1.4532,28.52347 -4.3594,39.58594 -3.8907,14.62501 -11.0391,27.07031 -21.4453,37.33593 l -2.88282,-2.46093 c 13.54682,-17.71874 20.32022,-42.44528 20.32032,-74.17969 l 0,-43.52344 c 0.4687,0.28136 1.0077,0.56261 1.6172,0.84375 1.1718,0.562609 3.8905,2.062608 8.1562,4.5 l 47.8125,0 7.2422,-9.773437 c 4.3124,4.171985 7.5233,7.664169 9.6328,10.476562 l -1.7578,2.882813 -64.3359,0 0,30.726562 45.0703,0 5.625,-6.96094 c 5.6717,5.3907 8.5077,8.67195 8.5078,9.84375 -10e-5,0.60944 -0.3986,1.12507 -1.1953,1.54688 l -3.7266,1.89844 c -4.3126,15.42192 -10.6407,29.10941 -18.9843,41.0625 l 0.5625,0.70312 c 8.0623,8.34376 18.6561,15.58594 31.7812,21.72656 -2.8595,2.4375 -5.1095,5.22656 -6.75,8.36719 -13.0314,-7.73437 -23.1095,-15.89062 -30.2344,-24.46875 -10.4063,11.85938 -24.0469,20.83593 -40.9218,26.92969 l -2.1094,-3.16406 c 15.7499,-7.07813 28.4061,-17.22656 37.9687,-30.44532 -8.0626,-11.99996 -14.25,-26.48432 -18.5625,-43.45312 l -7.0312,0 m 11.8125,0 c 5.0155,15.8438 11.0624,28.38285 18.1406,37.61719 6.8905,-10.59371 12.164,-23.13276 15.8203,-37.61719 l -33.9609,0 m -59.20314,41.41406 0,35.71875 -8.22656,0 0,-126 c 1.96873,0.843865 5.24998,2.531364 9.84375,5.0625 l 17.64843,0 5.0625,-6.328125 c 5.67182,5.203237 8.50772,8.367296 8.50782,9.492188 -10e-5,0.703232 -0.4219,1.265731 -1.2656,1.6875 l -3.7969,2.039062 c -3.93755,10.640715 -8.67192,20.531335 -14.20313,29.671875 10.54683,9.84381 15.82023,21.30474 15.82033,34.38281 -10e-5,15.14065 -5.90631,22.64064 -17.71877,22.5 -3e-5,-3.60935 -3.89065,-6.35154 -11.67187,-8.22656 m 0,-3.86719 c 4.17185,0.65628 8.01559,0.98441 11.53125,0.98438 4.12496,3e-5 6.74996,-1.47653 7.875,-4.42969 1.07808,-3.04684 1.61714,-6.70309 1.61719,-10.96875 -5e-5,-9.79682 -4.07817,-19.64056 -12.23438,-29.53125 4.59372,-10.45304 8.24996,-21.72647 10.96875,-33.820312 l -19.75781,0 0,77.765622"
         style="fill:none;stroke:#000000;stroke-opacity:1"
         id="path2997"
         inkscape:connector-curvature="0" />
    </g>
  </g>
</svg>
