<?xml version="1.0" encoding="UTF-8" standalone="no"?>
<!-- Created with Inkscape (http://www.inkscape.org/) -->

<svg
   xmlns:dc="http://purl.org/dc/elements/1.1/"
   xmlns:cc="http://creativecommons.org/ns#"
   xmlns:rdf="http://www.w3.org/1999/02/22-rdf-syntax-ns#"
   xmlns:svg="http://www.w3.org/2000/svg"
   xmlns="http://www.w3.org/2000/svg"
   xmlns:sodipodi="http://sodipodi.sourceforge.net/DTD/sodipodi-0.dtd"
   xmlns:inkscape="http://www.inkscape.org/namespaces/inkscape"
   width="744.09448819"
   height="1052.3622047"
   id="svg2"
   version="1.1"
   inkscape:version="0.48.4 r9939"
   sodipodi:docname="za2.svg">
  <defs
     id="defs4" />
  <sodipodi:namedview
     id="base"
     pagecolor="#ffffff"
     bordercolor="#666666"
     borderopacity="1.0"
     inkscape:pageopacity="0.0"
     inkscape:pageshadow="2"
     inkscape:zoom="0.49497475"
     inkscape:cx="296.67954"
     inkscape:cy="593.80436"
     inkscape:document-units="px"
     inkscape:current-layer="layer1"
     showgrid="false"
     inkscape:window-width="1032"
     inkscape:window-height="982"
     inkscape:window-x="279"
     inkscape:window-y="70"
     inkscape:window-maximized="0" />
  <metadata
     id="metadata7">
    <rdf:RDF>
      <cc:Work
         rdf:about="">
        <dc:format>image/svg+xml</dc:format>
        <dc:type
           rdf:resource="http://purl.org/dc/dcmitype/StillImage" />
        <dc:title />
      </cc:Work>
    </rdf:RDF>
  </metadata>
  <g
     inkscape:label="Layer 1"
     inkscape:groupmode="layer"
     id="layer1">
    <g
       style="font-size:40px;font-style:normal;font-weight:normal;line-height:125%;letter-spacing:0px;word-spacing:0px;fill:none;stroke:#000000;stroke-opacity:1;font-family:Sans"
       id="text2983"
       transform="matrix(5.0243441,0,0,5.0243441,-4525.234,74.898265)">
      <path
         d="m 985.06549,37.878128 0,-3.726562 c 0.0937,-3.468666 0.14054,-6.820225 0.14063,-10.054688 -9e-5,-8.531151 -0.63291,-13.92177 -1.89844,-16.1718749 -1.12509,-2.1092659 -3.51571,-3.6795769 -7.17188,-4.7109375 l 1.19532,-3.16406255 c 11.90615,1.1489e-4 17.85927,3.11729925 17.85937,9.35156255 -10e-5,0.7032294 -0.14072,1.8516664 -0.42187,3.4453124 -0.7501,4.781347 -1.19542,12.984464 -1.33594,24.609375 7.68742,-0.749922 13.59362,-1.851483 17.71872,-3.304687 1.7343,-0.656169 2.9765,-0.984294 3.7266,-0.984375 3.6561,8.1e-5 7.0077,1.40633 10.0547,4.21875 1.5467,1.359451 2.3202,2.554762 2.3203,3.585937 -10e-5,2.109447 -2.4376,3.164133 -7.3125,3.164063 -0.1876,7e-5 -0.9376,-0.0468 -2.25,-0.140625 -1.4533,-0.0468 -2.8126,-0.09368 -4.0781,-0.140625 -4.3126,-0.234304 -8.5548,-0.351492 -12.7266,-0.351563 -3.28135,7.1e-5 -5.76572,7.1e-5 -7.45312,0 l 0,3.515625 c -10e-5,14.812553 -1.73447,26.695354 -5.20313,35.648438 -6.51571,16.781265 -22.14851,29.414069 -46.89843,37.898439 l -2.03907,-3.30469 c 21.70306,-9.04687 35.43742,-21.585918 41.20313,-37.617187 2.81241,-7.874957 4.28897,-19.82807 4.42969,-35.859375 l -12.9375,0.492188 c -14.57819,0.703195 -22.07818,1.078194 -22.5,1.125 l -0.98438,0.140625 c -5e-5,3.281316 -5e-5,5.718813 0,7.3125 -5e-5,0.703186 0.0937,4.406307 0.28125,11.109375 0.0937,1.359424 0.14057,2.78911 0.14063,4.289062 -6e-5,5.578166 -2.10943,8.367226 -6.32813,8.367188 -2.76567,3.8e-5 -4.14848,-2.015585 -4.14844,-6.046875 -4e-5,-0.281206 0.0937,-1.570267 0.28125,-3.867188 0.79683,-6.79682 1.31246,-13.617126 1.54688,-20.460937 -0.8438,6.8e-5 -1.50005,0.04694 -1.96875,0.140625 -3.51567,0.375068 -7.75785,1.00788 -12.72656,1.898437 -2.85941,0.468816 -5.1094,0.703191 -6.75,0.703125 -5.34377,6.6e-5 -9.93752,-3.492118 -13.78125,-10.476562 l 1.82812,-2.601563 c 4.26561,3.046951 10.85154,4.570387 19.75781,4.570313 2.85934,7.4e-5 7.45309,-0.09368 13.78125,-0.28125 -4e-5,-1.312424 -4e-5,-2.320236 0,-3.023438 -0.14067,-12.28116 -0.65629,-19.851465 -1.54687,-22.710937 -0.70317,-2.531147 -3.11723,-4.5936454 -7.24219,-6.1875004 l 1.47656,-3.0234375 c 10.64058,0.1407345 15.96089,3.117294 15.96094,8.9296879 -5e-5,0.09385 -0.0938,0.937599 -0.28125,2.53125 -0.2813,2.109471 -0.42193,4.99228 -0.42187,8.648437 l 0,6.960938 0,4.148437 0,0.703125 0,2.742188 1.61718,0 c 13.26556,-0.6093 22.89836,-1.124924 28.89844,-1.546875 l 6.1875,-0.492188 M 1002.7139,0.47187805 c 11.8593,3.89073555 17.789,8.92979305 17.7891,15.11718795 -1e-4,3.375096 -1.4298,5.062594 -4.2891,5.0625 -2.1095,9.4e-5 -3.797,-1.499905 -5.0625,-4.5 -2.1563,-5.343646 -5.5548,-9.7498919 -10.1953,-13.2187504 l 1.7578,-2.46093755 m 13.6407,-8.92968745 c 11.8123,3.6094947 17.7186,8.34386501 17.7187,14.203125 -10e-5,3.4688557 -1.4767,5.2032294 -4.4297,5.2031254 -2.2032,1.04e-4 -3.9376,-1.5936449 -5.2031,-4.7812504 -1.922,-4.7811365 -5.1798,-8.8358199 -9.7734,-12.1640625 l 1.6875,-2.4609375"
         style="font-size:144px;font-variant:normal;font-stretch:normal;fill:none;stroke:#000000;stroke-opacity:1;font-family:TakaoMincho;-inkscape-font-specification:TakaoMincho"
         id="path2989"
         inkscape:connector-curvature="0" />
    </g>
  </g>
</svg>
