<?xml version="1.0" encoding="UTF-8" standalone="no"?>
<!-- Created with Inkscape (http://www.inkscape.org/) -->

<svg
   xmlns:dc="http://purl.org/dc/elements/1.1/"
   xmlns:cc="http://creativecommons.org/ns#"
   xmlns:rdf="http://www.w3.org/1999/02/22-rdf-syntax-ns#"
   xmlns:svg="http://www.w3.org/2000/svg"
   xmlns="http://www.w3.org/2000/svg"
   xmlns:sodipodi="http://sodipodi.sourceforge.net/DTD/sodipodi-0.dtd"
   xmlns:inkscape="http://www.inkscape.org/namespaces/inkscape"
   width="744.09448819"
   height="1052.3622047"
   id="svg2"
   version="1.1"
   inkscape:version="0.48.4 r9939"
   sodipodi:docname="tanabata1.svg">
  <defs
     id="defs4" />
  <sodipodi:namedview
     id="base"
     pagecolor="#ffffff"
     bordercolor="#666666"
     borderopacity="1.0"
     inkscape:pageopacity="0.0"
     inkscape:pageshadow="2"
     inkscape:zoom="0.7"
     inkscape:cx="401.52035"
     inkscape:cy="578.86049"
     inkscape:document-units="px"
     inkscape:current-layer="layer1"
     showgrid="false"
     inkscape:window-width="1129"
     inkscape:window-height="794"
     inkscape:window-x="283"
     inkscape:window-y="48"
     inkscape:window-maximized="0" />
  <metadata
     id="metadata7">
    <rdf:RDF>
      <cc:Work
         rdf:about="">
        <dc:format>image/svg+xml</dc:format>
        <dc:type
           rdf:resource="http://purl.org/dc/dcmitype/StillImage" />
        <dc:title />
      </cc:Work>
    </rdf:RDF>
  </metadata>
  <g
     inkscape:label="Layer 1"
     inkscape:groupmode="layer"
     id="layer1">
    <text
       xml:space="preserve"
       style="font-size:40px;font-style:normal;font-weight:normal;line-height:125%;letter-spacing:0px;word-spacing:0px;fill:#000000;fill-opacity:1;stroke:none;font-family:Sans"
       x="151.42857"
       y="206.6479"
       id="text2985"
       sodipodi:linespacing="125%"><tspan
         sodipodi:role="line"
         id="tspan2987"
         x="151.42857"
         y="206.6479" /></text>
    <path
       inkscape:connector-curvature="0"
       id="path2994"
       style="font-size:161.80653381px;font-style:normal;font-variant:normal;font-weight:normal;font-stretch:normal;line-height:125%;letter-spacing:0px;word-spacing:0px;fill:none;stroke:#000000;stroke-opacity:1;font-family:TakaoPMincho;-inkscape-font-specification:TakaoPMincho"
       d="m 249.69627,124.51426 0,61.15149 c -7e-5,2.73892 0.76367,4.45074 2.2912,5.13546 2.05412,0.94809 10.85023,1.42214 26.38837,1.42213 18.69824,1e-5 29.57487,-0.65839 32.62993,-1.97518 4.05557,-1.73814 6.82082,-12.4831 8.29575,-32.23489 l 4.5034,1.58014 c -0.10548,2.89696 -0.15815,6.18892 -0.15801,9.87589 -1.4e-4,8.58545 0.65825,14.24762 1.97518,16.98652 0.94794,2.15954 2.81777,3.2393 5.6095,3.23929 -0.47419,5.5305 -3.26577,8.87513 -8.37475,10.03391 -4.8459,0.94808 -18.67213,1.42212 -41.47873,1.42212 -22.12206,0 -34.68417,-0.92175 -37.68638,-2.76524 -2.79164,-1.79083 -4.18743,-5.6095 -4.18738,-11.45603 l 0,-61.1515 -42.42681,5.5305 -1.89617,-4.4244 44.32298,-5.76752 0,-52.618721 c 11.42963,0.474169 17.14447,2.027974 17.14454,4.661418 -7e-5,1.474921 -2.31761,3.107733 -6.95262,4.89844 l 0,41.557733 67.31404,-8.84879 7.42667,-12.483126 c 4.84563,3.581746 9.27002,7.453096 13.27319,11.614046 l -1.26411,3.3973 -86.74979,11.21901" />
    <path
       inkscape:connector-curvature="0"
       id="path2996"
       style="font-size:161.80653381px;font-style:normal;font-variant:normal;font-weight:normal;font-stretch:normal;line-height:125%;letter-spacing:0px;word-spacing:0px;fill:none;stroke:#000000;stroke-opacity:1;font-family:TakaoPMincho;-inkscape-font-specification:TakaoPMincho"
       d="m 419.64053,99.231989 c -4.31912,8.111481 -8.37481,14.958761 -12.16709,20.541841 24.28143,10.53435 36.42217,20.12053 36.42227,28.75859 -1e-4,3.79238 -1.79092,5.68855 -5.37248,5.68851 -1.84359,4e-5 -3.81877,-1.71178 -5.92553,-5.13546 -5.74127,-9.79683 -14.7744,-18.22424 -27.09944,-25.28227 l -0.63206,-0.47405 -0.63205,1.0271 c -10.06029,13.48393 -22.72774,25.44033 -38.00242,35.86922 l -2.76524,-3.23929 c 26.23031,-21.8059 45.48169,-51.56521 57.75418,-89.278022 10.27084,2.42301 15.4063,4.793221 15.40639,7.110638 -9e-5,1.738276 -2.65999,2.923381 -7.97972,3.55532 -3.2657,8.111505 -5.63591,13.721003 -7.11064,16.828511 l 50.32752,0 6.47858,-8.611773 c 7.32119,6.373342 10.98185,10.481707 10.98199,12.325107 -1.4e-4,0.684825 -0.47418,1.264209 -1.42213,1.738159 l -5.05645,2.13319 c -13.95804,33.60441 -31.31325,58.72864 -52.06568,75.37277 -15.06409,12.00908 -34.36813,21.72695 -57.9122,29.15362 l -2.44922,-3.71334 c 33.2356,-13.4312 58.49151,-31.60281 75.76781,-54.51489 9.95478,-13.22046 18.8299,-29.83827 26.62539,-49.853481 l -53.17178,0" />
  </g>
</svg>
