<?xml version="1.0" encoding="UTF-8" standalone="no"?>
<!-- Created with Inkscape (http://www.inkscape.org/) -->

<svg
   xmlns:dc="http://purl.org/dc/elements/1.1/"
   xmlns:cc="http://creativecommons.org/ns#"
   xmlns:rdf="http://www.w3.org/1999/02/22-rdf-syntax-ns#"
   xmlns:svg="http://www.w3.org/2000/svg"
   xmlns="http://www.w3.org/2000/svg"
   xmlns:sodipodi="http://sodipodi.sourceforge.net/DTD/sodipodi-0.dtd"
   xmlns:inkscape="http://www.inkscape.org/namespaces/inkscape"
   width="744.09448819"
   height="1052.3622047"
   id="svg2"
   version="1.1"
   inkscape:version="0.48.4 r9939"
   sodipodi:docname="tanabata4.svg">
  <defs
     id="defs4" />
  <sodipodi:namedview
     id="base"
     pagecolor="#ffffff"
     bordercolor="#666666"
     borderopacity="1.0"
     inkscape:pageopacity="0.0"
     inkscape:pageshadow="2"
     inkscape:zoom="0.7"
     inkscape:cx="401.52035"
     inkscape:cy="651.51892"
     inkscape:document-units="px"
     inkscape:current-layer="layer1"
     showgrid="false"
     inkscape:window-width="1129"
     inkscape:window-height="794"
     inkscape:window-x="283"
     inkscape:window-y="48"
     inkscape:window-maximized="0" />
  <metadata
     id="metadata7">
    <rdf:RDF>
      <cc:Work
         rdf:about="">
        <dc:format>image/svg+xml</dc:format>
        <dc:type
           rdf:resource="http://purl.org/dc/dcmitype/StillImage" />
        <dc:title />
      </cc:Work>
    </rdf:RDF>
  </metadata>
  <g
     inkscape:label="Layer 1"
     inkscape:groupmode="layer"
     id="layer1">
    <text
       xml:space="preserve"
       style="font-size:40px;font-style:normal;font-weight:normal;line-height:125%;letter-spacing:0px;word-spacing:0px;fill:#000000;fill-opacity:1;stroke:none;font-family:Sans"
       x="151.42857"
       y="206.6479"
       id="text2985"
       sodipodi:linespacing="125%"><tspan
         sodipodi:role="line"
         id="tspan2987"
         x="151.42857"
         y="206.6479" /></text>
    <path
       inkscape:connector-curvature="0"
       id="path2994"
       style="font-size:161.80653381px;font-style:normal;font-variant:normal;font-weight:normal;font-stretch:normal;line-height:125%;letter-spacing:0px;word-spacing:0px;fill:none;stroke:#000000;stroke-width:4.06558657;stroke-opacity:1;font-family:TakaoPMincho;-inkscape-font-specification:TakaoPMincho"
       d="m -3.079335,123.75873 0,248.61672 c -2.961e-4,11.1353 3.10475057,18.09485 9.3150711,20.87865 8.3512039,3.85455 44.1125529,5.78186 107.2842039,5.7818 76.01933,6e-5 120.2392,-2.67673 132.65981,-8.03025 16.48828,-7.06658 27.73064,-50.75115 33.7271,-131.05377 l 18.30895,6.4242 c -0.42882,11.77784 -0.64297,25.16158 -0.6424,40.15128 -5.7e-4,34.90491 2.67618,57.92494 8.03026,69.06019 3.85396,8.77981 11.45591,13.16965 22.80594,13.16961 -1.92789,22.4847 -13.27729,36.0826 -34.0483,40.79373 -19.70143,3.85449 -75.91313,5.78174 -168.63536,5.78174 -89.939175,0 -141.011516,-3.74744 -153.217269,-11.24232 -11.349652,-7.28077 -17.024364,-22.8059 -17.024155,-46.57546 l 0,-248.61677 -172.489886,22.48475 -7.70904,-17.9878 180.198926,-23.44833 0,-213.92598 c 46.4681664,1.92777 69.702345,8.244898 69.702607,18.951383 -2.62e-4,5.996426 -9.42242,12.634763 -28.266458,19.915028 l 0,168.956569 L 270.59172,67.86818 300.7855,17.11696 c 19.70035,14.56189 37.68808,30.301195 53.9633,47.217892 L 349.60947,78.146899 -3.079335,123.75873" />
    <path
       inkscape:connector-curvature="0"
       id="path2996"
       style="font-size:161.80653381px;font-style:normal;font-variant:normal;font-weight:normal;font-stretch:normal;line-height:125%;letter-spacing:0px;word-spacing:0px;fill:none;stroke:#000000;stroke-width:3.84874058;stroke-opacity:1;font-family:TakaoPMincho;-inkscape-font-specification:TakaoPMincho"
       d="m 645.37586,11.339482 c -16.62315,31.21898 -32.23248,57.572377 -46.82797,79.060199 93.45292,40.543969 140.17948,77.438699 140.17986,110.684339 -3.8e-4,14.59589 -6.89277,21.89376 -20.67728,21.89358 -7.0955,1.8e-4 -14.69745,-6.58818 -22.80582,-19.76504 C 673.148,165.50711 638.3818,133.07221 590.94592,105.90767 l -2.43263,-1.82448 -2.43258,3.95303 c -38.71945,51.89617 -87.47317,97.91323 -146.26146,138.05132 l -10.64268,-12.4672 C 530.13021,149.6951 604.22378,35.159258 651.45741,-109.98758 c 39.52979,9.32554 59.29485,18.447866 59.29518,27.367004 -3.3e-4,6.690174 -10.23759,11.25133 -30.71186,13.683503 -12.56882,31.21908 -21.69115,52.808572 -27.367,64.7685931 l 193.69755,0 24.93438,-33.1445001 c 28.17735,24.529346 42.26627,40.341359 42.2668,47.436139 -5.3e-4,2.635719 -1.82497,4.865613 -5.47339,6.689718 l -19.46098,8.210108 C 834.91723,154.35762 768.12153,251.05424 688.25083,315.11318 630.27305,361.33302 555.97681,398.73457 465.36181,427.3179 L 455.9354,413.02621 C 583.85059,361.33302 681.05402,291.39522 747.54603,203.21256 785.85938,152.33044 820.01742,88.372828 850.02023,11.339482 l -204.64437,0" />
    <path
       sodipodi:type="star"
       style="fill:none;stroke:#000000;stroke-width:0.03543307;stroke-miterlimit:4;stroke-opacity:1;stroke-dasharray:none"
       id="path3077"
       sodipodi:sides="5"
       sodipodi:cx="38.57143"
       sodipodi:cy="-104.78067"
       sodipodi:r1="13.477116"
       sodipodi:r2="6.7385583"
       sodipodi:arg1="0.55859932"
       sodipodi:arg2="1.1869178"
       inkscape:flatsided="false"
       inkscape:rounded="0"
       inkscape:randomized="0"
       d="m 50.000001,-97.637813 -8.904849,-0.894738 -5.78536,6.828362 -1.900804,-8.745501 -8.281932,-3.39213 7.730088,-4.51028 0.666844,-8.92481 6.678261,5.958 8.694065,-2.12371 -3.602696,8.19252 z"
       inkscape:transform-center-x="11.599354"
       inkscape:transform-center-y="3.3388628"
       transform="matrix(11.508434,0,0,11.508434,126.27716,1819.0512)" />
  </g>
</svg>
