<?xml version="1.0" encoding="UTF-8" standalone="no"?>
<!-- Created with Inkscape (http://www.inkscape.org/) -->

<svg
   xmlns:dc="http://purl.org/dc/elements/1.1/"
   xmlns:cc="http://creativecommons.org/ns#"
   xmlns:rdf="http://www.w3.org/1999/02/22-rdf-syntax-ns#"
   xmlns:svg="http://www.w3.org/2000/svg"
   xmlns="http://www.w3.org/2000/svg"
   xmlns:sodipodi="http://sodipodi.sourceforge.net/DTD/sodipodi-0.dtd"
   xmlns:inkscape="http://www.inkscape.org/namespaces/inkscape"
   width="744.09448"
   height="1052.3622"
   id="svg3649"
   version="1.1"
   inkscape:version="0.48.2 r9819"
   sodipodi:docname="aa.svg">
  <defs
     id="defs3651" />
  <sodipodi:namedview
     id="base"
     pagecolor="#ffffff"
     bordercolor="#666666"
     borderopacity="1.0"
     inkscape:pageopacity="0.0"
     inkscape:pageshadow="2"
     inkscape:zoom="0.75871702"
     inkscape:cx="142.71431"
     inkscape:cy="652.054"
     inkscape:document-units="px"
     inkscape:current-layer="layer2"
     showgrid="false"
     inkscape:window-width="1220"
     inkscape:window-height="856"
     inkscape:window-x="119"
     inkscape:window-y="24"
     inkscape:window-maximized="0"
     fit-margin-top="0"
     fit-margin-left="0"
     fit-margin-right="0"
     fit-margin-bottom="0"
     units="mm" />
  <metadata
     id="metadata3654">
    <rdf:RDF>
      <cc:Work
         rdf:about="">
        <dc:format>image/svg+xml</dc:format>
        <dc:type
           rdf:resource="http://purl.org/dc/dcmitype/StillImage" />
        <dc:title />
      </cc:Work>
    </rdf:RDF>
  </metadata>
  <g
     inkscape:groupmode="layer"
     id="layer2"
     inkscape:label="Layer">
    <path
       style="fill:none;stroke:#000000;stroke-width:1px;stroke-linecap:butt;stroke-linejoin:miter;stroke-opacity:1"
       d="m 165.17376,164.77061 c 0,0 361.83168,-0.12479 373.27154,0 21.26181,-0.82682 54.76899,15.76068 53.9769,48.35229 0.0138,34.01728 -15.55741,85.56812 -48.23185,124.45456 -32.67444,38.88644 -60.73586,58.0843 -75.80298,62.67711 -15.06712,4.59281 -25.72321,8.62952 -23.72977,-3.49696 1.99344,-12.12648 15.01646,-19.37076 31.6094,-37.21277 16.59294,-17.842 60.19968,-65.61383 64.7724,-96.68562 4.57272,-31.07179 -16.74381,-32.18639 -32.36317,-32.27979 -15.61935,-0.0934 -344.03439,0.23095 -344.03439,0.23095 z"
       id="path3808"
       inkscape:connector-curvature="0"
       sodipodi:nodetypes="ccczzzzzzcc" />
    <path
       sodipodi:nodetypes="czzzzzzzzcc"
       inkscape:connector-curvature="0"
       id="path3854"
       d="m 395.73685,270.56418 c 0,0 -1.05809,183.31235 -10.37629,219.87613 -9.3182,36.56378 -15.90302,63.04328 -51.59619,92.76865 -35.69317,29.72538 -102.25834,25.10008 -108.17614,25.04488 -5.9178,-0.0552 -13.55827,-1.62325 -13.49119,-7.83659 0.0671,-6.21334 3.94412,-5.72665 11.76019,-9.32472 7.81607,-3.59808 32.61912,-11.43637 42.42279,-18.02631 9.80366,-6.58993 27.5585,-13.90067 44.41805,-34.95731 16.85955,-21.05664 25.6604,-78.85054 26.68577,-117.07074 1.02538,-38.22021 2.56499,-150.43156 2.56499,-150.43156 z"
       style="fill:none;stroke:#000000;stroke-width:1px;stroke-linecap:butt;stroke-linejoin:miter;stroke-opacity:1" />
    <path
       sodipodi:nodetypes="zszzz"
       id="path3891"
       style="fill:none;stroke:#ff0000;stroke-opacity:1"
       d="m 448.85856,410.70217 c -5.46522,0.0877 -10.82952,-3.79527 -11.02822,-10.09553 -0.26918,-8.53493 6.17835,-11.03651 11.4942,-11.03651 5.31586,0 10.01219,4.34692 10.08893,11.50251 0.0767,7.15558 -5.08969,9.5418 -10.55491,9.62953 z"
       inkscape:connector-curvature="0" />
  </g>
</svg>
