<?xml version="1.0" encoding="UTF-8" standalone="no"?>
<!-- Created with Inkscape (http://www.inkscape.org/) -->

<svg
   xmlns:dc="http://purl.org/dc/elements/1.1/"
   xmlns:cc="http://creativecommons.org/ns#"
   xmlns:rdf="http://www.w3.org/1999/02/22-rdf-syntax-ns#"
   xmlns:svg="http://www.w3.org/2000/svg"
   xmlns="http://www.w3.org/2000/svg"
   xmlns:sodipodi="http://sodipodi.sourceforge.net/DTD/sodipodi-0.dtd"
   xmlns:inkscape="http://www.inkscape.org/namespaces/inkscape"
   width="744.09448"
   height="1052.3622"
   id="svg3649"
   version="1.1"
   inkscape:version="0.48.2 r9819"
   sodipodi:docname="de.svg">
  <defs
     id="defs3651" />
  <sodipodi:namedview
     id="base"
     pagecolor="#ffffff"
     bordercolor="#666666"
     borderopacity="1.0"
     inkscape:pageopacity="0.0"
     inkscape:pageshadow="2"
     inkscape:zoom="0.75871702"
     inkscape:cx="286.17359"
     inkscape:cy="654.72297"
     inkscape:document-units="px"
     inkscape:current-layer="layer2"
     showgrid="false"
     inkscape:window-width="1323"
     inkscape:window-height="856"
     inkscape:window-x="95"
     inkscape:window-y="29"
     inkscape:window-maximized="0"
     fit-margin-top="0"
     fit-margin-left="0"
     fit-margin-right="0"
     fit-margin-bottom="0"
     units="mm" />
  <metadata
     id="metadata3654">
    <rdf:RDF>
      <cc:Work
         rdf:about="">
        <dc:format>image/svg+xml</dc:format>
        <dc:type
           rdf:resource="http://purl.org/dc/dcmitype/StillImage" />
        <dc:title />
      </cc:Work>
    </rdf:RDF>
  </metadata>
  <g
     inkscape:groupmode="layer"
     id="layer2"
     inkscape:label="Layer">
    <path
       style="fill:none;stroke:#000000;stroke-width:1px;stroke-linecap:butt;stroke-linejoin:miter;stroke-opacity:1"
       d="m 258.83744,165.2366 c 0,0 18.39818,-0.59078 29.83804,-0.46599 21.30635,0.63459 67.72667,-1.18747 84.73213,-0.11051 18.65334,-0.46587 51.54491,0.75821 58.9455,0.50163 7.40059,-0.25658 50.63539,0.30173 44.42205,0.23465 -6.21334,-0.0671 27.39947,-0.69024 21.9371,-0.70102 -5.46236,-0.0108 38.31587,-1.19722 38.59922,25.22968 0.28335,26.4269 -34.39598,25.25392 -39.60902,24.93737 -5.21304,-0.31655 -79.65224,-0.0332 -95.2716,-0.12659 -15.61935,-0.0934 -143.65935,0.23095 -143.65935,0.23095 z"
       id="path3808"
       inkscape:connector-curvature="0"
       sodipodi:nodetypes="ccczzzzzzcc" />
    <path
       sodipodi:nodetypes="czzzzzzzzcc"
       inkscape:connector-curvature="0"
       id="path3854"
       d="m 240.4582,265.92349 c 0,0 287.69231,-0.0882 302.82056,-0.0442 15.12826,0.0436 26.6594,0.13975 27.45336,22.78488 0.79395,22.64513 -16.63866,27.69891 -35.35122,28.02464 -18.71256,0.32574 -67.81761,1.43484 -74.03072,1.34905 -6.21311,-0.0858 -80.75288,230.88138 -89.00973,230.49627 -8.25684,-0.38512 -60.35387,1.83661 -60.40449,-3.30734 -0.0506,-5.14395 76.42681,-200.9012 75.916,-214.9664 -0.51079,-14.06523 -9.35215,-14.50495 -21.47666,-14.63486 -12.12452,-0.12991 -126.19985,2.35775 -126.19985,2.35775 z"
       style="fill:none;stroke:#000000;stroke-width:1px;stroke-linecap:butt;stroke-linejoin:miter;stroke-opacity:1" />
    <path
       sodipodi:nodetypes="zszzz"
       id="path3891"
       style="fill:none;stroke:#000000;stroke-opacity:1"
       d="m 604.59002,186.4222 c -120.46014,-132.685618 6.38984,-17.46174 -7.89876,-41.28932 -15.10492,-25.18886 -74.66144,-117.731806 31.19818,10.83751 105.85962,128.56932 -4.23482,23.02526 7.02571,38.56864 11.26052,15.54338 90.13501,124.56879 -30.32513,-8.11683 z"
       inkscape:connector-curvature="0" />
  </g>
</svg>
