<?xml version="1.0" encoding="UTF-8" standalone="no"?>
<!-- Created with Inkscape (http://www.inkscape.org/) -->

<svg
   xmlns:dc="http://purl.org/dc/elements/1.1/"
   xmlns:cc="http://creativecommons.org/ns#"
   xmlns:rdf="http://www.w3.org/1999/02/22-rdf-syntax-ns#"
   xmlns:svg="http://www.w3.org/2000/svg"
   xmlns="http://www.w3.org/2000/svg"
   xmlns:sodipodi="http://sodipodi.sourceforge.net/DTD/sodipodi-0.dtd"
   xmlns:inkscape="http://www.inkscape.org/namespaces/inkscape"
   width="744.09448"
   height="1052.3622"
   id="svg3649"
   version="1.1"
   inkscape:version="0.48.2 r9819"
   sodipodi:docname="Fo_0.svg">
  <defs
     id="defs3651" />
  <sodipodi:namedview
     id="base"
     pagecolor="#ffffff"
     bordercolor="#666666"
     borderopacity="1.0"
     inkscape:pageopacity="0.0"
     inkscape:pageshadow="2"
     inkscape:zoom="1.0729879"
     inkscape:cx="406.49535"
     inkscape:cy="733.70912"
     inkscape:document-units="px"
     inkscape:current-layer="layer2"
     showgrid="false"
     inkscape:window-width="1220"
     inkscape:window-height="856"
     inkscape:window-x="119"
     inkscape:window-y="0"
     inkscape:window-maximized="0"
     fit-margin-top="0"
     fit-margin-left="0"
     fit-margin-right="0"
     fit-margin-bottom="0"
     units="mm" />
  <metadata
     id="metadata3654">
    <rdf:RDF>
      <cc:Work
         rdf:about="">
        <dc:format>image/svg+xml</dc:format>
        <dc:type
           rdf:resource="http://purl.org/dc/dcmitype/StillImage" />
        <dc:title />
      </cc:Work>
    </rdf:RDF>
  </metadata>
  <g
     inkscape:groupmode="layer"
     id="layer2"
     inkscape:label="Layer">
    <path
       style="fill:none;stroke:#000000;stroke-width:1px;stroke-linecap:butt;stroke-linejoin:miter;stroke-opacity:1"
       d="m 164.3617,579.48984 c 0,0 -0.12479,-361.83168 0,-373.27154 -0.82682,-21.26181 16.69266,-40.78934 39.03252,-40.92922 8.8539,-0.0138 361.4333,-0.28619 367.70055,-0.23095 6.26725,0.0552 8.68953,1.55532 8.62245,7.76866 -0.0671,6.21334 0.24173,15.47147 0.23095,20.93384 -0.0108,5.46236 -3.52716,8.28296 -8.32149,7.99962 -4.79433,-0.28335 -248.74731,-0.55315 -266.30543,0 -17.55812,0.55315 -33.11837,18.60776 -33.21177,34.22712 -0.0934,15.61935 0.23095,344.03439 0.23095,344.03439 z"
       id="path3808"
       inkscape:connector-curvature="0"
       sodipodi:nodetypes="ccczzzzzzcc" />
    <path
       sodipodi:nodetypes="czzzzzzzzcc"
       inkscape:connector-curvature="0"
       id="path3854"
       d="m 297.38819,580.41364 c 0,0 0.12612,-238.29899 0.12455,-253.4273 -0.002,-15.12832 12.17511,-26.69618 25.50083,-26.59829 13.32571,0.0979 242.98686,0.0633 248.90466,0.1185 5.9178,0.0552 7.96641,2.55523 7.89933,8.76857 -0.0671,6.21334 0.71576,10.85251 0.35551,19.11048 -0.36025,8.25796 -3.72784,9.10641 -8.87162,9.17252 -5.14378,0.0661 -130.07598,-1.47694 -144.13959,-0.92379 -14.06362,0.55315 -21.93249,9.41825 -22.02589,21.5431 -0.0934,12.12485 0.23095,222.19378 0.23095,222.19378 z"
       style="fill:none;stroke:#000000;stroke-width:1px;stroke-linecap:butt;stroke-linejoin:miter;stroke-opacity:1" />
    <path
       transform="translate(392.57661,738.85212)"
       sodipodi:nodetypes="zszzz"
       id="path3891"
       style="fill:none;fill-opacity:1;fill-rule:nonzero;stroke:#000000;stroke-opacity:1"
       d="m 108.56396,-169.38739 c -38.076202,0.27864 -72.072709,-32.262 -72.072709,-72.072 0,-39.81 32.273709,-72.081 72.072709,-72.081 39.799,0 71.98864,31.37424 72.06539,72.081 0.0768,40.70676 -33.98919,71.79336 -72.06539,72.072 z"
       inkscape:connector-curvature="0" />
  </g>
</svg>
