<?xml version="1.0" encoding="UTF-8" standalone="no"?>
<!-- Created with Inkscape (http://www.inkscape.org/) -->

<svg
   xmlns:dc="http://purl.org/dc/elements/1.1/"
   xmlns:cc="http://creativecommons.org/ns#"
   xmlns:rdf="http://www.w3.org/1999/02/22-rdf-syntax-ns#"
   xmlns:svg="http://www.w3.org/2000/svg"
   xmlns="http://www.w3.org/2000/svg"
   xmlns:sodipodi="http://sodipodi.sourceforge.net/DTD/sodipodi-0.dtd"
   xmlns:inkscape="http://www.inkscape.org/namespaces/inkscape"
   width="744.09448"
   height="1052.3622"
   id="svg3649"
   version="1.1"
   inkscape:version="0.48.2 r9819"
   sodipodi:docname="ii.svg">
  <defs
     id="defs3651" />
  <sodipodi:namedview
     id="base"
     pagecolor="#ffffff"
     bordercolor="#666666"
     borderopacity="1.0"
     inkscape:pageopacity="0.0"
     inkscape:pageshadow="2"
     inkscape:zoom="0.75871702"
     inkscape:cx="209.47414"
     inkscape:cy="629.92831"
     inkscape:document-units="px"
     inkscape:current-layer="layer2"
     showgrid="false"
     inkscape:window-width="1331"
     inkscape:window-height="856"
     inkscape:window-x="119"
     inkscape:window-y="24"
     inkscape:window-maximized="0"
     fit-margin-top="0"
     fit-margin-left="0"
     fit-margin-right="0"
     fit-margin-bottom="0"
     units="mm" />
  <metadata
     id="metadata3654">
    <rdf:RDF>
      <cc:Work
         rdf:about="">
        <dc:format>image/svg+xml</dc:format>
        <dc:type
           rdf:resource="http://purl.org/dc/dcmitype/StillImage" />
        <dc:title />
      </cc:Work>
    </rdf:RDF>
  </metadata>
  <g
     inkscape:groupmode="layer"
     id="layer2"
     inkscape:label="Layer">
    <path
       style="fill:none;stroke:#000000;stroke-width:1px;stroke-linecap:butt;stroke-linejoin:miter;stroke-opacity:1"
       d="m 580.34831,123.91216 c 0,0 -37.24764,32.28159 -87.53636,80.68184 -49.80594,44.37975 -127.60142,107.65976 -162.46319,132.53062 -34.60182,24.47942 -66.87046,42.17141 -104.38463,64.70771 -37.51418,22.5363 -47.64128,-12.31925 -16.03673,-34.36822 31.60455,-22.04897 50.82333,-40.45682 69.15145,-56.42427 18.32811,-15.96745 41.23623,-33.09684 59.31278,-50.41231 18.07655,-17.31546 31.98347,-26.08712 58.86309,-49.39701 26.87962,-23.30988 51.77355,-48.86829 71.94731,-68.39271 20.17377,-19.52443 56.09607,-53.148645 56.09607,-53.148645 z"
       id="path3808"
       inkscape:connector-curvature="0"
       sodipodi:nodetypes="ccczzzzzzcc" />
    <path
       sodipodi:nodetypes="czzzzzzzzcc"
       inkscape:connector-curvature="0"
       id="path3854"
       d="m 453.51942,260.31243 c 0,0 -0.12611,89.18268 -0.12454,110.83483 0.002,21.65214 -0.5254,199.5779 -0.80345,206.93582 -0.27804,7.35793 -2.07082,12.51839 -5.19269,12.46319 -3.12186,-0.0552 -47.10944,-0.22528 -51.70224,-0.38077 -4.59281,-0.15549 -3.97768,-8.52257 -3.61743,-16.78054 0.36025,-8.25796 -0.46606,-49.64742 0.0178,-62.29521 0.48389,-12.64779 0.0652,-49.78178 0.14914,-59.18871 0.084,-9.40693 -0.43496,-66.26884 -0.34156,-78.85969 0.0934,-12.59084 0.23505,-112.68649 0.23505,-112.68649 z"
       style="fill:none;stroke:#000000;stroke-width:1px;stroke-linecap:butt;stroke-linejoin:miter;stroke-opacity:1" />
    <path
       sodipodi:nodetypes="zszzz"
       id="path3891"
       style="fill:none;stroke:#ff0000;stroke-opacity:1"
       d="m 449.89085,591.68322 c -5.46522,0.0877 -10.82952,-3.79527 -11.02822,-10.09553 -0.26918,-8.53493 6.17835,-11.03651 11.4942,-11.03651 5.31586,0 10.01219,4.34692 10.08893,11.50251 0.0767,7.15558 -5.08969,9.5418 -10.55491,9.62953 z"
       inkscape:connector-curvature="0" />
  </g>
</svg>
