<?xml version="1.0" encoding="UTF-8" standalone="no"?>
<!-- Created with Inkscape (http://www.inkscape.org/) -->

<svg
   xmlns:dc="http://purl.org/dc/elements/1.1/"
   xmlns:cc="http://creativecommons.org/ns#"
   xmlns:rdf="http://www.w3.org/1999/02/22-rdf-syntax-ns#"
   xmlns:svg="http://www.w3.org/2000/svg"
   xmlns="http://www.w3.org/2000/svg"
   xmlns:sodipodi="http://sodipodi.sourceforge.net/DTD/sodipodi-0.dtd"
   xmlns:inkscape="http://www.inkscape.org/namespaces/inkscape"
   width="744.09448"
   height="1052.3622"
   id="svg3649"
   version="1.1"
   inkscape:version="0.48.2 r9819"
   sodipodi:docname="ko.svg">
  <defs
     id="defs3651" />
  <sodipodi:namedview
     id="base"
     pagecolor="#ffffff"
     bordercolor="#666666"
     borderopacity="1.0"
     inkscape:pageopacity="0.0"
     inkscape:pageshadow="2"
     inkscape:zoom="0.53649395"
     inkscape:cx="424.80782"
     inkscape:cy="477.34058"
     inkscape:document-units="px"
     inkscape:current-layer="layer2"
     showgrid="false"
     inkscape:window-width="1220"
     inkscape:window-height="856"
     inkscape:window-x="119"
     inkscape:window-y="24"
     inkscape:window-maximized="0"
     fit-margin-top="0"
     fit-margin-left="0"
     fit-margin-right="0"
     fit-margin-bottom="0"
     units="mm" />
  <metadata
     id="metadata3654">
    <rdf:RDF>
      <cc:Work
         rdf:about="">
        <dc:format>image/svg+xml</dc:format>
        <dc:type
           rdf:resource="http://purl.org/dc/dcmitype/StillImage" />
        <dc:title />
      </cc:Work>
    </rdf:RDF>
  </metadata>
  <g
     inkscape:groupmode="layer"
     id="layer2"
     inkscape:label="Layer">
    <path
       style="fill:none;stroke:#000000;stroke-width:1px;stroke-linecap:butt;stroke-linejoin:miter;stroke-opacity:1"
       d="m 165.17376,164.77061 c 0,0 394.78204,-0.12479 406.2219,0 8.08167,-0.82682 7.83898,16.69266 7.97886,39.03252 0.0138,8.8539 -2.30171,368.25134 -2.30171,368.25134 -0.52119,0.44239 -412.25107,0.84767 -412.40656,0.78059 -0.15549,-0.0671 0.48763,-94.73754 0.15113,-94.74832 0,0 321.91144,0.41959 323.12676,-0.64681 0,0 2.19097,-84.84282 1.63782,-102.40094 -0.55315,-17.55812 -1.58664,-116.29379 -3.69631,-116.7167 -2.10972,-0.4229 -321.24377,-2.34854 -321.24377,-2.34854 z"
       id="path3808"
       inkscape:connector-curvature="0"
       sodipodi:nodetypes="cccsssszzcc" />
    <path
       sodipodi:nodetypes="czzzzzzzzcc"
       inkscape:connector-curvature="0"
       id="path3854"
       d="m 491.57634,464.05706 c 0,0 0.46832,1.15025 -0.12549,2.80076 -0.5938,1.65051 -0.70578,2.11929 -2.15119,2.09354 -1.44541,-0.0258 -2.22246,-0.13923 -3.48,-0.15375 -1.25754,-0.0145 -1.59385,-0.54957 -1.77764,-1.81625 -0.18379,-1.26668 -0.44917,-2.36444 -0.0755,-3.31091 0.37362,-0.94647 0.39608,-0.67934 0.99402,-1.18704 0.59795,-0.5077 0.69686,-1.08243 1.70493,-1.10536 1.00807,-0.0229 1.20503,-0.14848 2.51218,-0.15089 1.30714,-0.002 1.63431,1.00239 1.63431,1.00239 z"
       style="fill:none;stroke:#ff0000;stroke-width:0.23642805px;stroke-linecap:butt;stroke-linejoin:miter;stroke-opacity:1" />
    <path
       sodipodi:nodetypes="zszzz"
       id="path3891"
       style="fill:none;stroke:#ff0000;stroke-width:0.27042452;stroke-opacity:1"
       d="m 487.37636,451.689 c -2.64495,0.0291 -3.3582,-1.11733 -3.56381,-4.42776 -0.24292,-3.9113 0.74621,-5.66648 3.3582,-5.66648 2.612,0 4.36769,1.44093 4.59023,5.04861 0.22254,3.60769 -1.73967,5.01655 -4.38462,5.04563 z"
       inkscape:connector-curvature="0" />
  </g>
</svg>
