<?xml version="1.0" encoding="UTF-8" standalone="no"?>
<!-- Created with Inkscape (http://www.inkscape.org/) -->

<svg
   xmlns:dc="http://purl.org/dc/elements/1.1/"
   xmlns:cc="http://creativecommons.org/ns#"
   xmlns:rdf="http://www.w3.org/1999/02/22-rdf-syntax-ns#"
   xmlns:svg="http://www.w3.org/2000/svg"
   xmlns="http://www.w3.org/2000/svg"
   xmlns:sodipodi="http://sodipodi.sourceforge.net/DTD/sodipodi-0.dtd"
   xmlns:inkscape="http://www.inkscape.org/namespaces/inkscape"
   width="744.09448"
   height="1052.3622"
   id="svg3649"
   version="1.1"
   inkscape:version="0.48.2 r9819"
   sodipodi:docname="nn.svg">
  <defs
     id="defs3651" />
  <sodipodi:namedview
     id="base"
     pagecolor="#ffffff"
     bordercolor="#666666"
     borderopacity="1.0"
     inkscape:pageopacity="0.0"
     inkscape:pageshadow="2"
     inkscape:zoom="1.0729879"
     inkscape:cx="227.93592"
     inkscape:cy="698.96279"
     inkscape:document-units="px"
     inkscape:current-layer="layer2"
     showgrid="false"
     inkscape:window-width="1220"
     inkscape:window-height="856"
     inkscape:window-x="119"
     inkscape:window-y="24"
     inkscape:window-maximized="0"
     fit-margin-top="0"
     fit-margin-left="0"
     fit-margin-right="0"
     fit-margin-bottom="0"
     units="mm" />
  <metadata
     id="metadata3654">
    <rdf:RDF>
      <cc:Work
         rdf:about="">
        <dc:format>image/svg+xml</dc:format>
        <dc:type
           rdf:resource="http://purl.org/dc/dcmitype/StillImage" />
        <dc:title />
      </cc:Work>
    </rdf:RDF>
  </metadata>
  <g
     inkscape:groupmode="layer"
     id="layer2"
     inkscape:label="Layer">
    <path
       style="fill:none;stroke:#000000;stroke-width:1px;stroke-linecap:butt;stroke-linejoin:miter;stroke-opacity:1"
       d="m 545.02686,202.06105 c 0,0 -32.51958,161.60495 -75.11831,234.22054 -15.6426,25.53347 -47.86487,64.80822 -88.96947,89.69044 -86.97516,47.07632 -142.59599,46.08244 -142.59599,46.08244 -0.52119,0.44239 -73.52135,0.84767 -73.67684,0.78059 -0.15549,-0.0671 0.48763,-85.41777 0.15113,-85.42855 0,0 43.45179,1.27161 44.66711,0.20521 0,0 59.25162,0.97431 101.80691,-14.94599 42.5553,-15.9203 77.7672,-33.05213 126.30572,-85.21515 48.53851,-52.16301 99.57917,-184.93539 99.57917,-184.93539 z"
       id="path3808"
       inkscape:connector-curvature="0"
       sodipodi:nodetypes="cccsssszzcc" />
    <path
       sodipodi:nodetypes="czzzzzzzzcc"
       inkscape:connector-curvature="0"
       id="path3854"
       d="m 176.48927,225.21778 c 0,0 0.46832,1.15025 -0.12549,2.80076 -0.5938,1.65051 -0.70578,2.11929 -2.15119,2.09354 -1.44541,-0.0258 -2.22246,-0.13923 -3.48,-0.15375 -1.25754,-0.0145 -1.59385,-0.54957 -1.77764,-1.81625 -0.18379,-1.26668 -0.44917,-2.36444 -0.0755,-3.31091 0.37362,-0.94647 0.39608,-0.67934 0.99402,-1.18704 0.59795,-0.5077 0.69686,-1.08243 1.70493,-1.10536 1.00807,-0.0229 1.20503,-0.14848 2.51218,-0.15089 1.30714,-0.002 1.63431,1.00239 1.63431,1.00239 z"
       style="fill:none;stroke:#ff0000;stroke-width:0.23642805px;stroke-linecap:butt;stroke-linejoin:miter;stroke-opacity:1" />
    <path
       sodipodi:nodetypes="zszzz"
       id="path3891"
       style="fill:none;stroke:#000000;stroke-width:0.27042452000000000;stroke-opacity:1"
       d="m 296.31914,361.27823 c -2.64495,0.0291 -123.95652,-130.94175 -124.16213,-134.25218 -0.24292,-3.9113 29.08352,-36.63982 31.69551,-36.63982 2.612,0 136.82814,107.54109 137.05068,111.14877 0.22254,3.60769 -41.93911,59.71415 -44.58406,59.74323 z"
       inkscape:connector-curvature="0" />
  </g>
</svg>
