<?xml version="1.0" encoding="UTF-8" standalone="no"?>
<!-- Created with Inkscape (http://www.inkscape.org/) -->

<svg
   xmlns:dc="http://purl.org/dc/elements/1.1/"
   xmlns:cc="http://creativecommons.org/ns#"
   xmlns:rdf="http://www.w3.org/1999/02/22-rdf-syntax-ns#"
   xmlns:svg="http://www.w3.org/2000/svg"
   xmlns="http://www.w3.org/2000/svg"
   xmlns:sodipodi="http://sodipodi.sourceforge.net/DTD/sodipodi-0.dtd"
   xmlns:inkscape="http://www.inkscape.org/namespaces/inkscape"
   width="744.09448"
   height="1052.3622"
   id="svg3649"
   version="1.1"
   inkscape:version="0.48.2 r9819"
   sodipodi:docname="su.svg">
  <defs
     id="defs3651" />
  <sodipodi:namedview
     id="base"
     pagecolor="#ffffff"
     bordercolor="#666666"
     borderopacity="1.0"
     inkscape:pageopacity="0.0"
     inkscape:pageshadow="2"
     inkscape:zoom="1.517434"
     inkscape:cx="391.94131"
     inkscape:cy="641.52091"
     inkscape:document-units="px"
     inkscape:current-layer="layer2"
     showgrid="false"
     inkscape:window-width="1323"
     inkscape:window-height="856"
     inkscape:window-x="124"
     inkscape:window-y="42"
     inkscape:window-maximized="0"
     fit-margin-top="0"
     fit-margin-left="0"
     fit-margin-right="0"
     fit-margin-bottom="0"
     units="mm" />
  <metadata
     id="metadata3654">
    <rdf:RDF>
      <cc:Work
         rdf:about="">
        <dc:format>image/svg+xml</dc:format>
        <dc:type
           rdf:resource="http://purl.org/dc/dcmitype/StillImage" />
        <dc:title />
      </cc:Work>
    </rdf:RDF>
  </metadata>
  <g
     inkscape:groupmode="layer"
     id="layer2"
     inkscape:label="Layer">
    <path
       style="fill:none;stroke:#000000;stroke-width:1px;stroke-linecap:butt;stroke-linejoin:miter;stroke-opacity:1"
       d="m 481.92752,369.67896 c 0,0 13.17337,19.35369 20.1585,28.41427 12.69374,17.12402 16.50592,19.49771 26.18935,33.5183 11.91525,14.35934 22.0931,27.76566 26.87674,33.41821 4.78364,5.65255 29.79652,33.35889 26.00214,28.43825 -3.79437,-4.92066 10.91664,12.52135 21.38217,24.04145 10.46553,11.5201 31.2539,27.36977 27.81144,30.77464 -3.44246,3.40488 -64.85191,3.7835 -67.83105,-0.50611 -2.97913,-4.28961 -49.2915,-62.56858 -58.88907,-74.89173 -9.59755,-12.32314 -51.56624,-65.21898 -51.56624,-65.21898 z"
       id="path3808"
       inkscape:connector-curvature="0"
       sodipodi:nodetypes="ccczzzzzzcc" />
    <path
       sodipodi:nodetypes="czzzzzzzzcc"
       inkscape:connector-curvature="0"
       id="path3854"
       d="m 276.7036,200.68177 c 0,0 252.76492,-0.0882 267.89317,-0.0442 15.12826,0.0436 32.59048,13.3199 34.04344,26.07992 1.45295,12.76002 -12.68462,48.78713 -25.46611,68.88309 -12.7815,20.09596 -43.43435,80.51572 -102.36804,148.30767 -58.93368,67.79194 -111.06721,106.98801 -119.32406,106.6029 -8.25684,-0.38512 -53.7638,3.81363 -53.81442,-1.33032 -0.0506,-5.14395 83.67587,-69.09972 145.11176,-143.13461 61.43588,-74.03489 116.51823,-166.73562 104.39372,-166.86553 -12.12452,-0.12991 -250.09321,0.38073 -250.09321,0.38073 z"
       style="fill:none;stroke:#000000;stroke-width:1px;stroke-linecap:butt;stroke-linejoin:miter;stroke-opacity:1" />
    <path
       sodipodi:nodetypes="zszzz"
       id="path3891"
       style="fill:none;stroke:#ff0000;stroke-opacity:1"
       d="m 383.82946,448.17368 c -1.4961,-2.05129 -1.05509,-5.99038 1.32048,-5.90163 2.24574,0.0839 4.54739,-0.78476 5.66935,1.31218 1.12195,2.09694 0.45935,4.34692 -1.79379,6.14364 -2.25313,1.79672 -3.69994,0.49711 -5.19604,-1.55419 z"
       inkscape:connector-curvature="0" />
  </g>
</svg>
