<?xml version="1.0" encoding="UTF-8" standalone="no"?>
<!-- Created with Inkscape (http://www.inkscape.org/) -->

<svg
   xmlns:dc="http://purl.org/dc/elements/1.1/"
   xmlns:cc="http://creativecommons.org/ns#"
   xmlns:rdf="http://www.w3.org/1999/02/22-rdf-syntax-ns#"
   xmlns:svg="http://www.w3.org/2000/svg"
   xmlns="http://www.w3.org/2000/svg"
   xmlns:sodipodi="http://sodipodi.sourceforge.net/DTD/sodipodi-0.dtd"
   xmlns:inkscape="http://www.inkscape.org/namespaces/inkscape"
   width="744.09448"
   height="1052.3622"
   id="svg3649"
   version="1.1"
   inkscape:version="0.48.2 r9819"
   sodipodi:docname="to.svg">
  <defs
     id="defs3651" />
  <sodipodi:namedview
     id="base"
     pagecolor="#ffffff"
     bordercolor="#666666"
     borderopacity="1.0"
     inkscape:pageopacity="0.0"
     inkscape:pageshadow="2"
     inkscape:zoom="1.0729879"
     inkscape:cx="248.53817"
     inkscape:cy="664.03287"
     inkscape:document-units="px"
     inkscape:current-layer="layer2"
     showgrid="false"
     inkscape:window-width="1331"
     inkscape:window-height="856"
     inkscape:window-x="75"
     inkscape:window-y="10"
     inkscape:window-maximized="0"
     fit-margin-top="0"
     fit-margin-left="0"
     fit-margin-right="0"
     fit-margin-bottom="0"
     units="mm" />
  <metadata
     id="metadata3654">
    <rdf:RDF>
      <cc:Work
         rdf:about="">
        <dc:format>image/svg+xml</dc:format>
        <dc:type
           rdf:resource="http://purl.org/dc/dcmitype/StillImage" />
        <dc:title />
      </cc:Work>
    </rdf:RDF>
  </metadata>
  <g
     inkscape:groupmode="layer"
     id="layer2"
     inkscape:label="Layer">
    <path
       style="fill:none;stroke:#000000;stroke-width:1.403;stroke-linecap:butt;stroke-linejoin:miter;stroke-miterlimit:4;stroke-opacity:1;stroke-dasharray:none"
       d="m 534.29224,366.65102 c 0,0 -27.2817,51.27186 -29.4293,52.74368 -3.4485,1.97608 -27.01673,-11.09444 -31.73244,-13.15398 -4.26605,-2.67794 -45.37801,-24.00607 -53.04939,-28.70416 -7.67138,-4.69809 -57.80173,-26.18337 -58.53079,-29.2455 -0.72906,-3.06213 24.73924,-51.69546 29.12097,-53.14623 4.38173,-1.45077 7.32563,2.60353 25.94895,11.42438 18.62331,8.82085 28.30568,14.82463 43.83528,22.23096 15.5296,7.40632 19.83906,9.38923 30.56257,14.8627 10.72352,5.47346 28.09456,15.68833 28.09456,15.68833 z"
       id="path3808"
       inkscape:connector-curvature="0"
       sodipodi:nodetypes="ccczzzzzzcc" />
    <path
       sodipodi:nodetypes="czzzzzzzzcc"
       inkscape:connector-curvature="0"
       id="path3854"
       d="m 383.66465,96.878642 c 0,0 -0.12611,235.482278 -0.12454,257.134428 0.002,21.65214 -0.5254,199.5779 -0.80345,206.93582 -0.27804,7.35793 -2.07082,12.51839 -5.19269,12.46319 -3.12186,-0.0552 -47.10944,-0.22528 -51.70224,-0.38077 -4.59281,-0.15549 -3.97768,-8.52257 -3.61743,-16.78054 0.36025,-8.25796 -0.46606,-49.64742 0.0178,-62.29521 0.48389,-12.64779 0.0652,-49.78178 0.14914,-59.18871 0.084,-9.40693 -0.43496,-66.26884 -0.34156,-78.85969 0.0934,-12.59084 0.23505,-258.986088 0.23505,-258.986088 z"
       style="fill:none;stroke:#000000;stroke-width:1px;stroke-linecap:butt;stroke-linejoin:miter;stroke-opacity:1" />
    <path
       sodipodi:nodetypes="zszzz"
       id="path3891"
       style="fill:none;stroke:#ff0000;stroke-opacity:1"
       d="m 352.35778,378.16488 c -12.05529,-10.45638 -18.07859,-13.68038 -18.27729,-19.98064 -0.26918,-8.53493 5.51934,-33.44276 10.83519,-33.44276 5.31586,0 14.62524,18.84508 23.92808,27.31869 9.30284,8.47361 -4.43069,36.56109 -16.48598,26.10471 z"
       inkscape:connector-curvature="0" />
  </g>
</svg>
